<svg width="104.3" height="72.148" version="1.1" viewBox="0 0 27.596779 19.089273" xmlns="http://www.w3.org/2000/svg">
  <g transform="translate(-24.498 -139.29)">
    <g>
      <path d="m41.59 154.3c-3.8087 1.3525-8.3319 2.4686-12.779 3.5502l0.20463-0.0284c1.0857-0.25973 2.1992-0.50227 3.2644-0.77101 1.6181-0.40826 3.2065-0.82866 4.7465-1.265 1.54-0.43638 3.0318-0.88885 4.4566-1.3622 2.2736 0.24448 4.6459 0.46578 6.9949 0.69246l0.35605-0.0496c-2.4628-0.24323-4.89-0.49574-7.2445-0.76636z" fill="#f0f" stroke="#000" stroke-width="1.0583"/>
      <path d="m43.969 139.82c-5.0479 0.11591-11.876 1.8092-15.138 3.5104-4.349 2.2682-5.2314 5.917-1.2873 7.9696 2.8241 1.4697 8.1086 2.3169 14.046 2.9993 2.9783-1.0576 5.5302-2.2564 7.1959-3.7197 3.7958-3.3344 3.7961-8.8115-0.56018-10.292-1.0891-0.37011-2.5739-0.50631-4.2566-0.46768z" fill="none" stroke="#000" stroke-width="1.0583"/>
      <text x="38.940907" y="148.75774" fill="#000000" font-family="'.SF NS Text Condensed'" font-size="10.583px" letter-spacing="0px" stroke-width=".26458" word-spacing="0px" style="font-feature-settings:normal;font-variant-caps:normal;font-variant-ligatures:normal;font-variant-numeric:normal;line-height:1.25" xml:space="preserve"><tspan x="38.940907" y="148.75774" fill="#000000" font-family="'.SF NS Text Condensed'" font-size="5.6444px" font-weight="500" stroke-width=".26458" text-align="center" text-anchor="middle">Escape</tspan></text>
    </g>
  </g>
</svg>
