<svg width="1262.1" height="859.19" version="1.1" viewBox="0 0 333.92422 227.32662" xmlns="http://www.w3.org/2000/svg" xmlns:xlink="http://www.w3.org/1999/xlink">
  <g transform="translate(-60.693 -131.92)">
    <path d="m243.18 132.37c3.1831 7.2591 3.2428 15.532-1.3877 24.344-8.9575 17.045-23.482 18.359-41.22 30.683-17.738 12.324-27.803 26.619-41.166 24.457-9.6759-1.5656-21.653-7.8165-35.354-20.641-5.2374-4.9026-9.6244-21.363-8.057-31.929 1.3982-9.4257 6.1427-18.707 13.433-26.917" fill="none" stroke="#9ebcbe" stroke-width="1.0583"/>
    <text transform="rotate(-34.158)" x="39.80175" y="252.49016" fill="#9ebcbe" font-family="'ヒラギノ丸ゴ Pro'" font-size="7.0556px" letter-spacing="0px" stroke-width=".26458" word-spacing="0px" style="font-feature-settings:normal;font-variant-caps:normal;font-variant-ligatures:normal;font-variant-numeric:normal;line-height:1.25" xml:space="preserve"><tspan x="39.80175" y="252.49016" dx="-0.30285418 1.5204094e-08 0.30285418 0 0 -7.4202873e-08" dy="0.90856236 -0.90856254 -0.30285418 1.4598228e-08 0.30285418 0.60570836" rotate="352.62643 355.08429 0 2.4578674 2.4578674 7.3736138 0" style="line-height:0">サインアップ</tspan><tspan x="39.80175" y="265.71933" dx="0.30285418 0 -0.30285415 -0.30285418" dy="-2.1199794 0.30285418 -1.2114167 1.4598228e-08 0 0.30285418 0.30285418" rotate="345.25287 350.16858 357.54214 5.2320107e-08 2.4578674 2.4578674 2.4578674 0" style="line-height:0">(初めての方)</tspan></text>
    <path d="m290 188.02c-3.9501 10.56-16.005 12.821-22.27 8.4585-13.458-9.3702-8.6726-6.2753-27.841-5.4604-15.92 0.67678-17.917-8.6894-19.8-19.927-2.8519-17.02 14.762-23.41 28.472-15.346 13.871 8.1598 9.0733 14.303 26.786 13.055 10.382-0.73158 16.821 13.421 14.652 19.22z" fill="none" stroke="#f4e9b2" stroke-width="1.0583"/>
    <text x="242.73723" y="187.92592" fill="#000000" font-family="'ヒラギノ丸ゴ Pro'" font-size="10.583px" letter-spacing="0px" stroke-width=".26458" word-spacing="0px" style="font-feature-settings:normal;font-variant-caps:normal;font-variant-ligatures:normal;font-variant-numeric:normal;line-height:1.25" xml:space="preserve"><tspan x="242.73723" y="187.92592" dx="0 1.4598228e-08 -0.90856254 -0.30285418" dy="0.60570836 -1.2114167 0.30285415 2.7256873" rotate="347.71072 355.08429 9.8314695 9.8314695 0" fill="#f4e9b2" font-family="'ヒラギノ丸ゴ Pro'" font-size="7.0556px" stroke-width=".26458">ログイン</tspan></text>
    <path d="m344.18 251.51c-5.113 9.4945-8.3614 33.096-27.468 35.724-28.35 3.8995-32.541-5.1084-41.06-11.204-13.677-9.7869-58.168-4.9096-56.536-29.66 2.081-31.546 26.062-22.618 42.774-36.994 18.298-15.74 12.809-56.176 41.815-58.838 20.15-1.8497 22.795 18.922 34.334 28.88 10.29 8.8803 34.138 8.4029 36.724 30.744 2.859 24.704-28.146 36.823-30.583 41.348z" fill="none" stroke="#abd5af" stroke-width="1.0583"/>
    <text transform="rotate(24.088)" x="365.96927" y="133.49789" fill="#000000" font-family="'.SF NS Text Condensed'" font-size="10.583px" letter-spacing="0px" stroke-width=".26458" word-spacing="0px" style="font-feature-settings:normal;font-variant-caps:normal;font-variant-ligatures:normal;font-variant-numeric:normal;line-height:1.25" xml:space="preserve"><tspan x="365.96927" y="133.49789" dx="0.30285418 0.60570836 1.4598228e-08 0.6057083 0 0.60570836 -1.2114166 -0.90856254 -2.1199791" dy="0 1.2114167 0.90856254 0.90856254 -0.60570836 -1.5142708 -3.0285413 -3.3313954 -5.14852" rotate="14.747216 9.8314695 9.8314695 352.62643 345.25287 337.8793 337.8793 328.04788 308.38504 0" fill="#abd5af" font-family="'.SF NS Text Condensed'" font-size="7.0556px" font-weight="500" stroke-width=".26458">ARWAVについて</tspan></text>
    <path d="m226.21 250.98c-6.2981 26.232-58.977 27.817-58.623 41.871 0.50063 19.876 38.176 5.5281 38.573 24.97 0.44804 21.916-43.885 41.773-86.996 40.867-24.742-0.51964-48.701-11.824-53.173-26.045-19.928-63.376 27.976-72.14 41.954-85.681 20.88-20.227 48.77-54.8 84.509-44.408 21.525 6.2589 38.168 30.046 33.755 48.424z" fill="none" stroke="#f5dad5" stroke-width="1.0583"/>
    <text transform="rotate(-36.099)" x="-52.136612" y="320.41647" fill="#000000" font-family="'.SF NS Text Condensed'" font-size="10.583px" letter-spacing="0px" stroke-width=".26458" word-spacing="0px" style="font-feature-settings:normal;font-variant-caps:normal;font-variant-ligatures:normal;font-variant-numeric:normal;line-height:1.25" xml:space="preserve"><tspan x="-52.136612" y="320.41647" dx="3.3313954 -3.0285416 -3.9371037 -0.90856254 0 1.4598228e-08 0.6057083 -0.30285418 -1.4598228e-08" dy="20.594091 -6.9656448 -4.8456664 -3.0285413 -0.6057083 0.90856254 1.5142708 1.2114167 0.90856254" rotate="293.63791 296.09576 330.50574 350.16858 2.4578669 9.8314676 2.4578674 7.3736014 14.747202 0" fill="#f5dad5" font-family="'.SF NS Text Condensed'" font-size="7.0556px" stroke-width=".26458">コンスタレーション</tspan></text>
    <path d="m394.13 132.38c-0.19603 0.48297-0.43651 0.96803-0.72432 1.4541-7.2592 12.26-6.9449 28.589-20.207 29.736-10.386 0.8985-18.838-3.2037-26.816-10.821-7.7274-7.3782-23.111 1.3412-26.621-12.956-0.70085-2.8551 1.4922-5.3265 5.0653-7.4219" fill="none" stroke="#000" stroke-width="1.0583"/>
    <text x="344.16409" y="144.97343" fill="#000000" font-family="'.SF NS Text Condensed'" font-size="10.583px" letter-spacing="0px" stroke-width=".26458" word-spacing="0px" style="font-feature-settings:normal;font-variant-caps:normal;font-variant-ligatures:normal;font-variant-numeric:normal;line-height:1.25" xml:space="preserve"><tspan x="344.16409" y="144.97343" font-size="7.0556px" stroke-width=".26458">言語 EN/JP</tspan></text>
    <g transform="matrix(.20902 0 0 .20902 115.36 210.78)">
      <image width="1046" height="123" preserveAspectRatio="none" xlink:href="file:///Library/WebServer/Documents/arwav%EF%BC%BF/mobile/img/title.png"/>
      <path d="m595.07 107.37c-3.112-3.9562-2.7384-10.105 1.072-17.644 2.1778-4.3089 4.1572-11.14 6.4386-22.221 4.7128-22.891 7.3673-35.669 7.9357-38.2 0.45925-2.0446 0.0879-2.2211-5.2624-2.5l-5.7565-0.3001-0.30521-4.7602c-0.37677-5.8763 0.30254-6.2212 10.02-5.0874 6.6243 0.77294 7.3835 1.0976 8.6219 3.6868 1.1803 2.4679 1.0742 4.3643-0.81143 14.5-1.1931 6.4134-3.0046 15.256-4.0256 19.649s-1.7385 8.1062-1.5946 8.2501c0.14392 0.14391 2.6767-3.4462 5.6284-7.9779 2.9517-4.5318 7.1688-10.195 9.3714-12.584 3.4966-3.7934 4.3896-4.2676 7.0386-3.7378 1.7149 0.34299 5.1198 2.6612 7.8317 5.3324 10.81 10.648 11.636 28.77 2.1649 47.521-5.7402 11.364-8.6956 14.708-13 14.708-2.4995 0-4.0888-0.97994-7.3796-4.55-4.5884-4.9778-4.7058-6.214-0.79885-8.4168 2.3457-1.3226 2.7975-1.2894 4.5954 0.33765 3.4177 3.093 5.2644 1.6388 10.337-8.1402 4.6124-8.8913 4.8045-9.594 4.7834-17.497-0.0156-5.8335-0.55741-9.3997-1.8588-12.234-2.2338-4.8645-5.3431-7.7914-7.7949-7.3377-2.0446 0.3784-12.448 15.423-20.634 29.838-4.3938 7.7375-5.6911 11.142-6.9924 18.349-2.367 13.11-5.3199 16.489-9.6252 11.016zm-571.51-3.6288c-0.81575-1.245-2.2331-5.1825-3.1496-8.75-4.0744-15.86 1.3749-41.105 11.227-52.01 3.4826-3.8548 4.0879-4.1425 7.6973-3.6584 2.1546 0.28899 5.8462 1.9106 8.2036 3.6035 5.1867 3.7248 5.8205 3.7752 7.2772 0.57808 0.97222-2.1338 1.806-2.5 5.6919-2.5 3.319 0 4.7254 0.44975 5.1896 1.6595 0.67534 1.7599-0.42127 9.3134-4.187 28.84-4.5947 23.825-4.4627 24.783 2.0605 14.956 1.9918-3.0008 3.9431-5.4559 4.3362-5.4559s1.7145 1.3523 2.9365 3.0052l2.2218 3.0052-4.1717 6.2448c-5.9883 8.9643-9.8125 12.745-12.892 12.745-1.4321 0-3.1438-0.54-3.8038-1.2-2.0408-2.0408-1.4016-16.625 1.3304-30.356 1.3917-6.9944 2.316-12.931 2.0539-13.194-0.64786-0.64786-3.6327 4.3349-9.7337 16.249-6.8985 13.472-17.452 28.5-20.015 28.5-0.43442 0-1.4573-1.0186-2.273-2.2636zm8.1386-17.986c1.6723-2.3375 4.644-7.4425 6.6038-11.345 1.9598-3.902 4.9689-9.4786 6.687-12.392l3.1238-5.298-3.2542-3.3575c-1.7898-1.8466-3.976-3.3575-4.8581-3.3575s-2.0859-0.48209-2.6752-1.0713c-3.6939-3.6939-11.296 19.913-11.321 35.155-0.012053 7.3131 1.3658 7.7164 5.694 1.6667zm423.97 19.583c-1.1527-1.1526-0.72639-6.0546 0.78283-9.0023 6.3363-12.376 7.5505-16.472 7.5505-25.475 0-9.8409-1.4322-14.608-5.7401-19.106-5.1009-5.3255-13.095-2.7534-15.133 4.8693-0.65903 2.4642-1.266 2.8807-4.1985 2.8807-3.2674 0-3.4157-0.15537-3.1655-3.3144 0.64184-8.1027 9.3965-18.186 15.79-18.186 6.6229 0 12.76 4.9262 16.404 13.167 2.8337 6.4084 4.4436 19.128 3.2513 25.689-1.0752 5.9154-0.0603 7.4932 2.1955 3.4134 7.957-14.391 8.0965-14.887 8.0965-28.754 0-10.975 0.24171-13.031 1.5621-13.287 2.1247-0.412 9.4568 8.4789 12.532 15.197 2.9654 6.4772 4.1912 19.43 2.5623 27.075-2.6077 12.239-2.8565 11.582 2.2741 6 2.5275-2.75 5.6872-6.8 7.0216-9 2.5248-4.1627 7.5475-20.089 7.5475-23.932 0-1.2145-1.575-4.0482-3.5-6.2971-3.9371-4.5997-4.1922-5.8378-1.8819-9.1362l1.6181-2.3101 3.8447 3.7542c3.8878 3.7964 6.9192 10.56 6.9192 15.439 0 4.3772-3.8469 18.061-6.8824 24.482-5.4259 11.477-22.538 27.048-28.916 26.312-2.5073-0.28932-2.6874-0.62291-2.5045-4.6394 0.10837-2.3802 1.1156-5.8844 2.2382-7.7872 2.4985-4.2346 6.0688-17.83 6.0538-23.052-0.01579-5.503-1.1063-11.333-2.1198-11.333-0.47804 0-0.86916 0.87677-0.86916 1.9484 0 3.9177-5.047 17.78-8.228 22.599-1.7978 2.7237-7.1654 8.8897-11.928 13.702-7.8982 7.9808-11.234 10.027-13.177 8.0833zm235.26-2.0106c-4.4212-11.586-5.1222-25.336-1.9286-37.823 2.6799-10.478 6.3346-18.209 10.755-22.75 4.7789-4.9089 8.2521-4.9663 15.108-0.25 2.7985 1.925 5.4767 3.5 5.9517 3.5 0.47497 0 1.3874-1.1496 2.0276-2.5546 1.0442-2.2918 1.6515-2.5233 5.9015-2.25 3.7933 0.24393 4.8125 0.69896 5.1138 2.283 0.41758 2.1954-0.67994 8.9517-4.9698 30.594-4.1857 21.117-3.8889 22.522 2.6107 12.361 1.9118-2.9886 3.8469-5.4338 4.3003-5.4338s1.8242 1.3523 3.0462 3.0052l2.2218 3.0052-3.9364 5.7448c-6.0504 8.8301-11.286 13.47-14.754 13.074l-2.8772-0.3287-0.28985-8.813c-0.25801-7.8449 1.2414-19.067 4.4339-33.187 1.2992-5.7458-2.222-0.91022-8.8162 12.107-6.7149 13.256-18.161 29.664-21.075 30.211-1.1571 0.21703-2.1108-0.62558-2.8242-2.4951zm9.1309-18.585c1.9578-2.881 5.2952-8.6132 7.4165-12.738s4.9419-9.2338 6.2679-11.353l2.411-3.853-2.3276-2.4883c-1.2802-1.3686-4.0147-3.3062-6.0767-4.3058l-3.7491-1.8176-2.0033 2.5468c-5.8709 7.4636-10.811 39.355-6.0818 39.259 0.32083-0.0065 2.1852-2.369 4.143-5.25zm-173.86 18.062c-2.0946-2.0946-1.3201-8.7936 3.2141-27.8 2.4273-10.175 4.7134-19.256 5.08-20.181 0.53214-1.3415-5e-3 -1.7451-2.6637-2-3.1454-0.30161-3.3475-0.55594-3.6383-4.5785-0.20777-2.8736 0.11754-4.3735 1-4.6106 0.71936-0.19331 3.6744-1.1358 6.5668-2.0945 9.7038-3.2162 10.108-1.3915 4.3658 19.718-2.1314 7.8357-4.413 17.105-5.0702 20.598-0.6572 3.4932-1.4642 7.053-1.7933 7.9107-0.60632 1.58 0.68539 1.5182 4.9388-0.23633 1.3079-0.53952 2.059 0.15819 3.2571 3.0256 1.9116 4.5751 1.2405 5.5871-5.965 8.9959-5.8238 2.7551-7.5561 2.9887-9.2919 1.2529zm28.672-0.46525c-3.2843-3.985-0.88169-23.052 5.6708-45.003 0.52109-1.7456 0.1903-2.2327-1.698-2.5-1.9503-0.27612-2.3452-0.92136-2.3452-3.832 0-3.3829 0.14457-3.5167 4.3214-4 4.3073-0.49837 4.3319-0.52445 7.5489-8 2.973-6.9086 3.4804-7.5247 6.4355-7.8139 4.3368-0.42431 4.8505 1.444 2.2835 8.305-1.1491 3.0711-2.0892 5.9964-2.0892 6.5007 0 0.50424 3.0375 1.0499 6.75 1.2125l6.75 0.29569v7l-8.8227 0.28999-8.8227 0.28999-2.4608 5.5643c-2.9317 6.6291-7.3718 23.528-7.3847 28.106-0.0101 3.5852 1.4233 4.1465 4.5498 1.7818 2.6587-2.0109 9.3271-1.9925 10.102 0.0279 1.2369 3.2233-11.484 13.44-16.735 13.44-1.475 0-3.2994-0.74936-4.0542-1.6652zm241.18-0.68832c-4.4752-11.771-20.051-62.024-19.398-62.586 1.2596-1.0833 11.412-5.0608 12.917-5.0608 0.71919 0 1.5838 0.44682 1.9213 0.99292 0.33751 0.54611 3.693 11.15 7.4565 23.564 6.4293 21.207 7.5698 24.389 8.373 23.36 0.17881-0.22917 3.3902-10.767 7.1365-23.417s7.2164-23.516 7.7113-24.146c1.0666-1.3587 13.75 3.2821 14.531 5.3168 0.57331 1.494-19.329 62.98-20.65 63.796-0.50713 0.31342-2.7674-0.16851-5.0228-1.071-3.7887-1.516-4.4241-1.5173-8.3494-0.0183-5.4446 2.0793-5.5625 2.0663-6.626-0.73103zm49.416 1.1406c-0.27463-0.71566-0.38062-16.373-0.23554-34.794l0.26378-33.493h15v69l-7.2645 0.2941c-5.261 0.21299-7.4022-0.0648-7.7638-1.0071zm44.001-1.0575c-10.469-4.6427-13.574-8.4279-18.571-22.636-4.4186-12.564-0.58109-26.285 10.269-36.718 18.422-17.713 46.203-6.3924 51.229 20.875 0.62055 3.3666 0.43064 3.8695-1.8541 4.9105-1.4 0.63788-2.5454 1.961-2.5454 2.9403s-0.41907 2.0395-0.93126 2.356c-0.5122 0.31655-9.6247 1.0753-20.25 1.6861-10.625 0.61079-19.512 1.284-19.748 1.496-0.23608 0.21202 0.29207 1.8981 1.1736 3.7468 1.8652 3.9113 8.5542 7.6136 13.756 7.6136 4.6968 0 11.45-3.5097 14.97-7.7799l2.9676-3.6003 4.6992 3.983c7.7726 6.5879 7.7754 6.6714 0.46741 13.577-7.9606 7.5225-11.397 8.9885-22.104 9.4291-7.1175 0.29289-9.3177-0.0128-13.527-1.8797zm-0.0272-36.076c1.9454-2.0992 3.3089-2.4046 12.927-2.8954 5.9136-0.30181 11.03-0.82645 11.369-1.1659s-0.13273-2.1895-1.0492-4.1114c-6.023-12.63-24.26-7.8762-26.08 6.7986-0.5392 4.3473-0.11359 4.5537 2.8332 1.3741zm-774.97 36.132c-0.27426-0.7147-0.37994-16.371-0.23486-34.792l0.26378-33.493 7.3317-0.29546c6.674-0.26896 7.3797-0.11197 7.8666 1.75 0.6873 2.6282 0.80473 2.6071 5.3016-0.95454 3.3972-2.6906 4.5139-3 10.829-3 3.8726 0 8.2342 0.45366 9.6926 1.0081 2.4732 0.94032 2.6038 1.2935 1.94 5.25-0.87255 5.2012-3.3797 14.993-3.9968 15.611-0.24879 0.24879-1.278-0.29489-2.2872-1.2082-2.8628-2.5908-9.8232-2.1681-13.761 0.83562-1.8462 1.4082-3.9499 2.2363-4.8264 1.8999-1.3744-0.52741-1.5847 2.2146-1.8218 23.754l-0.26801 24.35-7.7651 0.29234c-5.6649 0.21327-7.9-0.0591-8.2638-1.0071zm71.029 0.28637c-9.3028-1.577-19.132-11.443-22.621-22.707-4.5093-14.558-0.51547-29.117 10.626-38.736 4.949-4.2726 6.3477-4.9101 14.019-6.3889 9.724-1.8746 14.086-1.1959 22.92 3.5659 12.734 6.8644 19.276 24.881 14.611 40.24-2.7487 9.0494-5.8858 13.809-12.427 18.856-6.8068 5.2514-16.148 7.0316-27.128 5.1703zm17.946-20.463c1.9718-1.504 4.0986-4.4686 5.115-7.13 1.5084-3.9495 1.5774-5.2813 0.51907-10.01-2.7647-12.354-15.653-17.099-25.47-9.3766-7.9666 6.2665-7.9134 18.609 0.11194 26.007 4.4516 4.1034 4.5893 4.1512 10.43 3.6216 4.2457-0.38499 6.8727-1.2643 9.2939-3.1111zm53.054 20.463c-19.111-3.2395-30.656-31.53-20.664-50.634 8.8319-16.885 27.09-22.783 44.088-14.242 8.2347 4.1379 13.001 10.159 15.97 20.177 2.6426 8.9163 2.6459 12.669 0.0184 21.176-2.6694 8.6424-5.8422 13.382-12.284 18.353-6.8068 5.2514-16.148 7.0316-27.128 5.1703zm17.946-20.463c1.9772-1.5081 4.099-4.4696 5.1227-7.1502 1.4897-3.9008 1.5757-5.3202 0.58267-9.6221-1.5764-6.8295-4.3182-10.353-9.6372-12.384-9.9662-3.8061-20.695 2.9224-21.603 13.548-0.5601 6.5598 1.0301 10.692 5.8107 15.098 4.4516 4.1034 4.5893 4.1512 10.43 3.6216 4.2457-0.38499 6.8727-1.2643 9.2939-3.1111zm32.025 20.176c-0.27436-0.71497-0.38005-16.147-0.23486-34.292l0.26397-32.992 7.478-0.29841c5.8748-0.23444 7.7231 0.0368 8.6213 1.2651 1.0171 1.3909 1.6267 1.2872 5.522-0.93954 3.3294-1.9033 5.8231-2.506 10.406-2.5151 6.4011-0.01279 8.4016 0.8806 14.254 6.3659l3.2816 3.0757 2.2184-2.6457c1.2201-1.4552 4.2229-3.6383 6.6728-4.8514 3.8378-1.9003 5.4297-2.1153 11.5-1.5532 9.8268 0.90997 16.692 5.4181 20.147 13.229 2.3975 5.4211 2.4286 5.8694 2.1657 31.184l-0.26675 25.684h-15l-0.54404-25c-0.29922-13.75-0.63672-25.095-0.75-25.211-3.383-3.4666-5.0588-4.289-8.7395-4.289-2.9246 0-4.7081 0.60952-6.0177 2.0566-1.2674 1.4004-2.5877 1.8743-4.1381 1.4852l-2.2768-0.57145-0.26691 25.765-0.26691 25.765h-16l-0.26705-25.191-0.26704-25.191-2.6178-2.0592c-3.4627-2.7238-9.6538-2.7534-12.348-0.059171-2.2488 2.2488-4 2.599-4 0.8 0-0.78564-0.33921-0.86079-0.98237-0.21763-0.57703 0.57702-1.0928 11.491-1.25 26.45l-0.26763 25.468-7.7651 0.29234c-5.6664 0.21332-7.9-0.059-8.264-1.0076zm644.05-0.03473c-0.69273-2.0718-13.779-61.133-13.904-62.75-0.13574-1.7608 14.104-6.7386 15.329-5.3586 0.41927 0.47224 2.0015 8.5086 3.5162 17.859 4.2782 26.41 4.6922 28.5 5.6456 28.5 0.49123 0 0.89315-1.1429 0.89315-2.5398 0-4.2823 6.9248-42.785 7.8639-43.724 0.5089-0.5089 2.6917-0.39427 5.1627 0.2711 3.204 0.86275 5.4118 0.86805 8.7755 0.02106 2.4719-0.62244 4.8112-0.77093 5.1985-0.32997 0.38723 0.44095 2.122 9.5767 3.8551 20.302 1.7331 10.725 3.3411 20.625 3.5734 22 0.23226 1.375 0.45573 3.3625 0.4966 4.4167 0.17907 4.6187 1.3174-0.55334 4.9033-22.279 2.1057-12.757 4.3035-23.67 4.884-24.251 1.2513-1.2513 12.64 1.628 14.286 3.612 0.731 0.88075-0.6171 8.5245-4.6073 26.123-3.1023 13.683-6.2747 27.796-7.0498 31.362-0.7751 3.566-1.816 6.8903-2.3132 7.3875-0.5385 0.53855-2.6425 0.46262-5.2052-0.18786-3.1049-0.78811-5.5045-0.78879-8.6274-2e-3 -2.4948 0.6282-4.6569 0.71467-5.1074 0.20428-0.42965-0.48679-2.5083-11.34-4.6192-24.118-2.1109-12.778-4.0518-23.019-4.3131-22.757-0.26133 0.26132-1.4877 6.666-2.7253 14.233-3.8956 23.818-5.4319 31.658-6.3912 32.617-0.57427 0.57427-2.5793 0.48023-5.2354-0.24556-3.0726-0.83957-5.3046-0.88116-7.7981-0.14528-4.5682 1.3482-5.9792 1.3005-6.4873-0.21902zm-408.36-72.132c-0.90349-1.164-3.1581-7.3552-3.1581-8.6723 0-1.3451 9.0884-6.1259 10.567-5.5585 1.0006 0.38396 1.4331 2.1879 1.4331 5.9768 0 5.3319-0.0698 5.4614-3.987 7.3995-2.8564 1.4132-4.2331 1.6556-4.8549 0.8545zm302.91-5.346c-4.3562-5.2849-4.352-11.869 0.01123-17.378 2.8034-3.5396 3.5135-3.8939 7.8038-3.8939 4.0261 0 5.1896 0.4847 7.916 3.2976 2.8741 2.9653 3.1962 3.9028 3.1962 9.3038 0 5.4812-0.28825 6.2856-3.2976 9.2024-2.7442 2.6598-4.0746 3.1962-7.9272 3.1962-4.1287 0-4.9621-0.40335-7.7024-3.7278z"/>
    </g>
  </g>
</svg>
