<svg width="750" height="5e3" version="1.1" viewBox="0 0 198.4375 1322.9167" xmlns="http://www.w3.org/2000/svg">
  <g transform="translate(0 1025.9)">
    <g>
      <path transform="matrix(.26458 0 0 .26458 0 -1025.9)" d="m369.17 2808.6c-7.9965-0.143-15.875-0.0284-23.645 0.3848s-15.427 1.125-22.98 2.1719c-3.4414 0.477-6.7657 1.0435-9.9902 1.6855-3.2245 0.642-6.35 1.3597-9.3984 2.1406-6.0968 1.562-11.882 3.3745-17.518 5.336-5.636 1.9614-11.123 4.072-16.623 6.2246-5.5005 2.1525-11.015 4.3472-16.705 6.4824-5.6901 2.1353-11.557 4.2096-17.762 6.1191-3.1025 0.9548-6.2898 1.8693-9.582 2.7286-3.2922 0.8592-6.6884 1.6646-10.211 2.4023-3.5225 0.7377-7.1713 1.408-10.965 1.9981-3.7935 0.59-7.7327 1.0992-11.838 1.5156-4.1052 0.4164-8.3765 0.7403-12.834 0.957s-9.1008 0.3255-13.951 0.3164c-7.6027-0.0143-16.308-0.3631-25.799-0.9707-9.4907-0.6076-19.767-1.4729-30.516-2.5234-10.748-1.0506-21.967-2.2859-33.342-3.6289-11.375-1.3431-22.906-2.7942-34.277-4.2793-14.509-1.8949-27.362-3.7092-40.697-5.5567v1003.7c0.38603 0.0537 0.53121 0.067 0.91992 0.1211 18.946 2.6361 41.052 5.7406 63.795 8.7109 11.372 1.4852 22.902 2.9363 34.277 4.2793 11.375 1.3431 22.594 2.5784 33.342 3.629 10.748 1.0505 21.025 1.9177 30.516 2.5253 9.4907 0.6077 18.196 0.9565 25.799 0.9707 4.8504 0.0091 10.205-0.1509 15.99-0.4589 5.7854-0.308 12.003-0.7653 18.58-1.3496 13.155-1.1687 27.75-2.8479 43.215-4.877s31.796-4.4074 48.426-6.9707c16.63-2.5634 33.557-5.3127 50.207-8.084 33.3-5.5425 65.496-11.174 92.012-15.59 13.258-2.2082 25.096-4.1136 34.941-5.5508s17.697-2.4062 22.984-2.7461c6.5421-0.4205 13.348-0.729 20.371-0.9297 7.0232-0.2006 14.265-0.2945 21.678-0.2851 7.4125 0.0093 14.995 0.1207 22.705 0.33 7.7101 0.2094 15.547 0.5166 23.463 0.916 7.9159 0.3995 15.911 0.8912 23.941 1.4707 8.03 0.5796 16.094 1.2483 24.146 1.9981s16.093 1.5821 24.076 2.4922c7.983 0.9101 15.909 1.8965 23.73 2.957s15.541 2.1936 23.109 3.3945c7.5689 1.201 14.987 2.4694 22.211 3.8008 1.543 0.2844 2.9694 0.6025 4.4941 0.8926v-967.42c-10.901-0.3317-21.688-0.8093-32.277-1.5136-11.61-0.7723-23.036-1.7504-34.283-2.8965-11.247-1.1461-22.314-2.4599-33.209-3.9024-10.895-1.4424-21.616-3.0125-32.17-4.6738-10.554-1.6613-20.94-3.4122-31.164-5.2148-20.448-3.6053-40.247-7.4176-59.445-11.123-19.198-3.7055-37.795-7.3045-55.834-10.49-9.0195-1.5929-17.9-3.083-26.646-4.4297s-17.36-2.5513-25.846-3.5742c-8.4853-1.023-16.841-1.8646-25.076-2.4864-8.2352-0.6217-16.349-1.0229-24.346-1.166z" fill="#abd5af" style="paint-order:stroke fill markers"/>
      <path transform="matrix(.26458 0 0 .26458 0 -1025.9)" d="m749.5 1796.2c-2.3015 0.0151-4.2987-0.0306-6.7031 0.0058-7.6911 0.1165-15.894 0.3408-24.506 0.6661-17.225 0.6502-36.091 1.7029-55.797 3.0996-19.706 1.3966-40.25 3.1366-60.832 5.1621-3.3302 0.3277-6.916 0.8181-10.742 1.4453-3.8262 0.6271-7.8917 1.3904-12.18 2.2656-8.576 1.7504-18.042 3.9467-28.26 6.3809-10.218 2.4341-21.188 5.1076-32.773 7.8144s-23.789 5.4473-36.469 8.0156c-6.34 1.2842-12.799 2.5249-19.361 3.6973s-13.226 2.2758-19.977 3.2852c-6.7503 1.0093-13.586 1.9239-20.49 2.7187s-13.877 1.4691-20.9 1.9981c-7.0236 0.5289-14.098 0.9133-21.207 1.125-7.1089 0.2116-14.252 0.2508-21.412 0.0937s-14.337-0.5107-21.514-1.0879c-7.1769-0.5771-14.354-1.3771-21.514-2.4258-4.1269-0.6044-8.0066-1.2884-11.676-2.039-3.6692-0.7507-7.1289-1.5677-10.416-2.4395-3.2871-0.8717-6.4023-1.798-9.3828-2.7656s-5.8248-1.9772-8.5742-3.0156c-5.499-2.0768-10.612-4.2696-15.641-6.4785-5.0281-2.2089-9.9711-4.4345-15.133-6.5743-5.1617-2.1397-10.542-4.1932-16.441-6.0625-2.9498-0.9346-6.0297-1.823-9.2774-2.6523s-6.6622-1.6-10.283-2.2988c-3.621-0.6989-7.4477-1.326-11.518-1.8692-4.0699-0.5431-8.3842-1.0028-12.979-1.3652-4.5944-0.3624-9.4697-0.6288-14.664-0.7852-5.1944-0.1564-10.708-0.2016-16.578-0.1269-7.9352 0.101-16.393 0.4673-25.178 1.0586-8.7846 0.5913-17.896 1.4075-27.139 2.4023-9.2424 0.9949-18.615 2.1688-27.924 3.4805s-18.552 2.7609-27.535 4.3027c-8.9832 1.5418-17.707 3.1761-25.973 4.8614-6.4218 1.3092-12.27 2.6604-18.049 4.0097v818.79c3.6976 0.6194 7.0376 1.2492 10.887 1.8614 10.364 1.6483 21.223 3.2653 32.279 4.83 22.113 3.1296 45.018 6.0467 66.344 8.5645 21.326 2.5178 41.072 4.6378 56.869 6.1738 6.0104 0.5844 12.216 0.9453 18.602 1.1074 6.3855 0.1622 12.951 0.1242 19.686-0.0878 6.7341-0.2121 13.635-0.5986 20.691-1.1368 7.0561-0.5382 14.267-1.2267 21.619-2.0429 7.3516-0.8163 14.844-1.7604 22.465-2.8067 7.6206-1.0462 15.369-2.1956 23.232-3.4238 15.726-2.4564 31.91-5.2293 48.447-8.125 16.537-2.8957 33.427-5.9147 50.562-8.8652 17.136-2.9506 34.519-5.8324 52.041-8.4532 8.7612-1.3103 17.557-2.555 26.375-3.7109 8.818-1.1558 17.658-2.2225 26.506-3.1758 8.8484-0.9532 17.706-1.7935 26.559-2.4961 8.8522-0.7025 17.698-1.268 26.527-1.6718 5.1454-0.5064 10.466-0.8631 15.928-1.0879 5.4613-0.2248 11.064-0.317 16.771-0.2911 5.7076 0.026 11.522 0.1702 17.406 0.4161 5.8845 0.2458 11.84 0.5924 17.832 1.0273 11.984 0.8698 24.113 2.0883 36.109 3.5293 11.997 1.4411 23.861 3.1054 35.314 4.8711s22.497 3.6329 32.852 5.4766c9.767 1.7389 18.783 3.4419 27.092 5.0371v-840.22z" fill="#f5dad5" style="paint-order:stroke fill markers"/>
      <path transform="matrix(.26458 0 0 .26458 0 -1025.9)" d="m2.6992 1118.1v520.94c8.3823 1.6768 17.095 3.3081 26.113 4.8477 9.7362 1.6621 19.729 3.2345 29.736 4.6973 10.007 1.4627 20.026 2.8166 29.814 4.039 9.7887 1.2225 19.348 2.3146 28.43 3.2559s17.686 1.7305 25.572 2.3496c4.9652 0.3898 9.7666 0.6311 14.416 0.7363 4.6494 0.1053 9.147 0.0754 13.508-0.0742 4.3608-0.1496 8.5841-0.4201 12.684-0.7949 4.0994-0.3748 8.0761-0.8536 11.941-1.4238 3.8653-0.5703 7.619-1.2307 11.277-1.9668 3.6583-0.7361 7.2207-1.5477 10.699-2.42 6.957-1.7444 13.581-3.7309 19.982-5.8418 6.4011-2.1108 12.58-4.3462 18.643-6.5859 6.0629-2.2397 12.011-4.4841 17.953-6.6152 5.9422-2.1312 11.877-4.1485 17.916-5.9336 3.0196-0.8926 6.0658-1.7268 9.1504-2.4883s6.2079-1.45 9.3848-2.0508c5.7807-1.0931 11.677-1.9557 17.676-2.6094 5.9991-0.6536 12.103-1.0996 18.297-1.3632 6.1942-0.2637 12.48-0.3445 18.846-0.2676 6.3659 0.0769 12.812 0.3117 19.326 0.6797 6.5142 0.368 13.095 0.8689 19.734 1.4785 6.6392 0.6096 13.335 1.3291 20.076 2.1308 13.482 1.6036 27.143 3.54 40.891 5.6153 6.1182 0.9235 12.572 2.0166 19.209 3.2246s13.458 2.5312 20.305 3.9219c13.694 2.7813 27.5 5.8273 40.184 8.7285 25.368 5.8023 46.247 11.029 52.766 12.424 4.7485 1.0163 9.5083 1.9199 14.266 2.7227 4.7574 0.8027 9.513 1.5054 14.254 2.1172 9.4819 1.2235 18.905 2.0872 28.17 2.6816 9.2649 0.5944 18.371 0.9193 27.217 1.0644 8.8461 0.1452 17.433 0.1105 25.658-0.0136 15.577-0.2351 29.564-0.7756 41.867-1.043v-518.69c-1.1471-0.311-2.2036-0.6158-3.3613-0.9258-9.4448-2.5295-19.256-5.0176-29.619-7.3047-5.1815-1.1435-10.502-2.237-15.982-3.2598-5.4808-1.0227-11.123-1.976-16.949-2.8379-5.8267-0.8618-11.838-1.6321-18.057-2.2929-6.2191-0.6608-12.647-1.2112-19.305-1.6309s-13.546-0.7092-20.689-0.8476c-7.1435-0.1386-14.541-0.1264-22.217 0.0566-7.0455 0.168-13.635 0.4809-19.82 0.918-6.1856 0.437-11.968 0.9979-17.402 1.6679s-10.521 1.4477-15.312 2.3145c-4.7914 0.8667-9.2879 1.8242-13.545 2.8515-4.257 1.0274-8.2743 2.1256-12.105 3.2774-3.8311 1.1517-7.4765 2.3557-10.99 3.5957-7.0274 2.48-13.527 5.1008-19.936 7.7168-6.4085 2.6159-12.725 5.2269-19.383 7.6894-3.3287 1.2313-6.7433 2.4259-10.297 3.5645s-7.2458 2.2226-11.133 3.2324c-3.887 1.0099-7.968 1.9461-12.297 2.791-4.3289 0.8449-8.9059 1.5985-13.785 2.2422-4.8792 0.6438-10.062 1.1775-15.6 1.584s-11.431 0.6854-17.736 0.8184c-4.1801 0.0881-9.6686-0.1994-16.283-0.8047s-14.356-1.5286-23.043-2.7168c-8.6874-1.1883-18.322-2.6402-28.721-4.3008-10.399-1.6606-21.561-3.5303-33.309-5.5527-46.992-8.09-103.33-18.634-157.45-28.092-6.0748-1.0618-12.193-2.0295-18.324-2.9121-6.1314-0.8827-12.276-1.6799-18.406-2.3985-12.26-1.4371-24.459-2.5607-36.363-3.4316-11.904-0.871-23.514-1.489-34.598-1.9141-8.4424-0.3238-16.219-0.4496-23.947-0.5762z" fill="#f4e9b2" style="paint-order:stroke fill markers"/>
      <path transform="matrix(.26458 0 0 .26458 0 -1025.9)" d="m748.12 495.24c-3.0683 0.08174-5.0022 0.05687-8.1426 0.15234-12.256 0.3726-24.994 0.85211-37.688 1.4727s-25.343 1.3821-37.424 2.3125-23.594 2.0298-34.012 3.332c-5.2089 0.65113-10.144 1.3537-14.74 2.1094s-8.853 1.5656-12.705 2.4336c-16.171 3.6439-31.778 6.9782-46.707 10.025s-29.18 5.8061-42.645 8.2969c-13.464 2.4908-26.141 4.7147-37.918 6.6894s-22.656 3.7002-32.523 5.1992c-19.734 2.9981-35.426 5.0862-46.184 6.4238-10.758 1.3376-16.582 1.9258-16.582 1.9258-5.2573 0.43319-10.333 0.69326-15.242 0.79883s-9.6525 0.05675-14.246-0.12891c-4.5936-0.18566-9.0366-0.50873-13.346-0.94922-4.3091-0.44048-8.4849-0.99929-12.541-1.6582-4.0561-0.65892-7.9934-1.4169-11.828-2.2578-3.8348-0.84096-7.566-1.7654-11.211-2.752-7.29-1.9732-14.233-4.1998-20.953-6.5371-13.44-4.6746-25.993-9.786-38.67-14.17-6.3384-2.192-12.708-4.2022-19.234-5.8848-3.2632-0.84126-6.5663-1.6005-9.9238-2.2598s-6.7686-1.2192-10.252-1.6602c-5.5198-0.69872-11.187-1.2903-16.977-1.7773s-11.7-0.86933-17.707-1.1484-12.111-0.45445-18.283-0.5293c-6.1724-0.07483-12.413-0.04957-18.699 0.07618-6.286 0.12574-12.617 0.35118-18.965 0.67382-6.3477 0.32266-12.713 0.74197-19.07 1.2578-6.3575 0.51585-12.706 1.1286-19.021 1.834-6.3153 0.70537-12.597 1.5033-18.818 2.3945-6.2212 0.89121-12.382 1.8759-18.457 2.9492s-12.064 2.2365-17.941 3.4883c-5.8771 1.2518-11.642 2.591-17.27 4.0176-0.10569 0.02679-0.20301 0.05908-0.30859 0.08594v463.52c7.505 1.5407 15.119 3.0821 23.555 4.5391 10.88 1.879 22.389 3.6735 34.16 5.3476 11.771 1.6742 23.802 3.2276 35.725 4.623 11.922 1.3954 23.735 2.6329 35.068 3.6757 11.333 1.0429 22.187 1.8896 32.191 2.5059s19.159 1.0013 27.094 1.1172c6.0835 0.0889 12.595-0.0414 19.477-0.3633s14.134-0.8342 21.701-1.5117c7.5668-0.6775 15.447-1.5203 23.586-2.4981 8.1387-0.9777 16.535-2.0917 25.133-3.3144 17.195-2.4455 35.193-5.3242 53.543-8.418 18.35-3.0937 37.052-6.4014 55.652-9.7012 18.6-3.2998 37.1-6.5927 55.045-9.6562 17.945-3.0636 35.336-5.8981 51.721-8.2832 8.1921-1.1926 16.134-2.2728 23.766-3.2129 7.6321-0.94004 14.955-1.7408 21.914-2.373 6.9589-0.63225 13.552-1.0961 19.725-1.3652 6.1725-0.26916 11.924-0.34255 17.197-0.19336 8.6301 0.24419 16.963 0.58705 25.01 1.0156 8.0465 0.42857 15.807 0.94241 23.291 1.5312 7.4843 0.58883 14.693 1.2516 21.637 1.9766 6.9435 0.72497 13.621 1.5126 20.045 2.3496 12.848 1.6739 24.681 3.5482 35.58 5.5254s20.867 4.0572 29.988 6.1445c5.2842 1.2092 9.6986 2.389 14.432 3.584v-482.8z" fill="#9ebcbe" style="paint-order:stroke fill markers"/>
    </g>
    <path d="m111.46-937.93c-0.5352-0.6804-0.47095-1.7378 0.18435-3.0343 0.37454-0.74106 0.71496-1.9159 1.1073-3.8217 0.81051-3.9369 1.267-6.1344 1.3648-6.5696 0.079-0.35165 0.0151-0.38201-0.90501-0.42998l-0.99-0.0513-0.0525-0.81867c-0.0648-1.0106 0.052-1.0699 1.7233-0.8749 1.1392 0.13292 1.2698 0.18876 1.4828 0.63407 0.20298 0.42439 0.18473 0.75056-0.13955 2.4937-0.20519 1.103-0.51673 2.6237-0.69231 3.3793-0.17558 0.75562-0.29899 1.3941-0.27424 1.4188 0.0248 0.0247 0.46034-0.59267 0.96796-1.372 0.50763-0.77935 1.2329-1.7532 1.6117-2.1642 0.60135-0.65234 0.75493-0.73392 1.2105-0.64279 0.29494 0.0591 0.88049 0.45767 1.3469 0.91709 1.8591 1.8312 2.0011 4.9479 0.37231 8.1726-0.98718 1.9544-1.4955 2.5295-2.2357 2.5295-0.42986 0-0.7032-0.16853-1.2691-0.7825-0.78911-0.85607-0.80929-1.0687-0.13738-1.4475 0.40342-0.2275 0.48111-0.22178 0.79031 0.0579 0.58778 0.53196 0.90537 0.28184 1.7778-1.4 0.79324-1.5291 0.82628-1.65 0.82265-3.0091-3e-3 -1.0032-0.0959-1.6166-0.31967-2.1039-0.38416-0.83655-0.9189-1.34-1.3406-1.2619-0.35163 0.0651-2.1409 2.6524-3.5486 5.1315-0.75564 1.3307-0.97876 1.9161-1.2026 3.1556-0.40707 2.2546-0.9149 2.8358-1.6553 1.8945zm-98.288-0.62408c-0.14029-0.21411-0.38404-0.89125-0.54166-1.5048-0.70071-2.7276 0.23646-7.0692 1.9307-8.9446 0.59894-0.66294 0.70304-0.7124 1.3238-0.6292 0.37054 0.0501 1.0054 0.32864 1.4108 0.61977 0.89201 0.64058 1.001 0.64922 1.2515 0.0994 0.1672-0.36693 0.31059-0.42991 0.97889-0.42991 0.57079 0 0.81267 0.0774 0.89251 0.28535 0.11614 0.3027-0.07245 1.6017-0.72008 4.96-0.79019 4.0975-0.76749 4.2622 0.35436 2.5721 0.34255-0.5161 0.67812-0.93834 0.74573-0.93834 0.0676 0 0.29486 0.23257 0.50502 0.51682l0.38211 0.51681-0.71744 1.074c-1.0299 1.5417-1.6875 2.1918-2.2172 2.1918-0.24629 0-0.54067-0.0929-0.65418-0.20638-0.35097-0.35097-0.24105-2.8592 0.2288-5.2205 0.23934-1.2029 0.3983-2.2239 0.35323-2.269-0.11142-0.11141-0.62474 0.74555-1.674 2.7945-1.1864 2.3168-3.0015 4.9014-3.4421 4.9014-0.07471 0-0.25062-0.17518-0.39092-0.3893zm1.3997-3.0933c0.2876-0.40202 0.79868-1.28 1.1357-1.951 0.33704-0.67106 0.85455-1.6301 1.15-2.1312l0.53723-0.91117-0.55966-0.57739c-0.30781-0.31759-0.68378-0.57746-0.83549-0.57746s-0.35874-0.0829-0.46007-0.18421c-0.63527-0.63531-1.9427 3.4245-1.947 6.0458-0.0021 1.2577 0.23489 1.327 0.97925 0.28665zm72.913 3.3679c-0.19824-0.19824-0.12493-1.0413 0.13463-1.5482 1.0897-2.1284 1.2985-2.8328 1.2985-4.3812 0-1.6925-0.24632-2.5123-0.98719-3.2858-0.87725-0.91585-2.252-0.47353-2.6026 0.83746-0.11334 0.4238-0.21773 0.49543-0.72205 0.49543-0.56192 0-0.58744-0.0267-0.54441-0.57005 0.11038-1.3935 1.616-3.1275 2.7156-3.1275 1.139 0 2.1944 0.84721 2.8212 2.2645 0.48734 1.1021 0.76421 3.2897 0.55915 4.4179-0.1849 1.0173-0.0104 1.2887 0.37758 0.58702 1.3684-2.4749 1.3924-2.5602 1.3924-4.945 0-1.8875 0.0416-2.2411 0.26866-2.2851 0.36541-0.0708 1.6264 1.4582 2.1553 2.6135 0.50998 1.114 0.7208 3.3415 0.44067 4.6563-0.44847 2.1048-0.49126 1.9919 0.3911 1.0319 0.43467-0.47294 0.97808-1.1695 1.2076-1.5478 0.43421-0.71591 1.298-3.4549 1.298-4.1158 0-0.20884-0.27087-0.69621-0.60193-1.083-0.6771-0.79105-0.72096-1.004-0.32365-1.5712l0.27828-0.39728 0.66121 0.64565c0.66862 0.65286 1.1899 1.8162 1.1899 2.6552 0 0.75283-0.66158 3.1062-1.1836 4.2104-0.93314 1.9738-3.8761 4.6517-4.973 4.5251-0.4312-0.0497-0.46217-0.10712-0.43072-0.79787 0.01865-0.40935 0.19185-1.012 0.38492-1.3392 0.42969-0.72826 1.0437-3.0663 1.0411-3.9644-0.0026-0.9464-0.19027-1.9491-0.36457-1.9491-0.08221 0-0.14947 0.15074-0.14947 0.33508 0 0.67372-0.86798 3.0578-1.415 3.8866-0.30918 0.46845-1.2323 1.5289-2.0514 2.3565-1.3583 1.3725-1.932 1.7244-2.2662 1.3902zm40.46-0.34578c-0.76035-1.9927-0.88092-4.3573-0.33168-6.5048 0.46088-1.8021 1.0894-3.1316 1.8497-3.9125 0.82186-0.84422 1.4192-0.8541 2.5983-0.0429 0.48127 0.33111 0.94187 0.60196 1.0236 0.60196s0.23859-0.19773 0.3487-0.43933c0.17958-0.39416 0.28401-0.43401 1.0149-0.38695 0.65237 0.0416 0.82766 0.12019 0.87948 0.3926 0.0718 0.37759-0.11694 1.5395-0.85471 5.2616-0.71985 3.6316-0.66881 3.8733 0.44899 2.1259 0.32878-0.51396 0.66159-0.93451 0.73956-0.93451 0.078 0 0.31373 0.23257 0.52388 0.51682l0.38211 0.51681-0.67697 0.988c-1.0405 1.5186-1.941 2.3165-2.5374 2.2484l-0.49482-0.0566-0.0499-1.5156c-0.0444-1.3491 0.21349-3.2792 0.76254-5.7075 0.22343-0.98813-0.38213-0.15652-1.5162 2.0822-1.1548 2.2797-3.1234 5.1016-3.6244 5.1956-0.19899 0.0373-0.36302-0.10758-0.48571-0.4291zm1.5703-3.1961c0.3367-0.4955 0.91067-1.4813 1.2755-2.1907 0.36481-0.70947 0.84989-1.5881 1.078-1.9525l0.41465-0.66261-0.40029-0.42796c-0.22016-0.2353-0.69045-0.56856-1.0451-0.74048l-0.64478-0.31259-0.34452 0.43797c-1.0097 1.2836-1.8593 6.7683-1.0459 6.7518 0.0552 0 0.37581-0.40742 0.71251-0.90285zm-29.9 3.1062c-0.36022-0.36024-0.22702-1.5123 0.55276-4.781 0.41745-1.7499 0.8106-3.3117 0.87365-3.4707 0.0915-0.23068-6.5e-4 -0.3001-0.4581-0.34391-0.54094-0.052-0.5757-0.0956-0.62571-0.78741-0.03575-0.4942 0.02022-0.75218 0.17198-0.79294 0.12371-0.0331 0.63192-0.19532 1.1293-0.36023 1.6689-0.55308 1.7384-0.23926 0.75084 3.391-0.36656 1.3475-0.75895 2.9416-0.87198 3.5424-0.11302 0.6008-0.25181 1.213-0.30842 1.3605-0.10427 0.2717 0.11788 0.2611 0.84938-0.0403 0.22493-0.0928 0.35411 0.0273 0.56015 0.52032 0.32875 0.78683 0.21334 0.96083-1.0259 1.5471-1.0016 0.47382-1.2995 0.51399-1.598 0.21546zm4.9311-0.08c-0.56483-0.6853-0.15163-3.9644 0.97525-7.7396 0.0896-0.30017 0.0327-0.38395-0.29202-0.42991-0.33541-0.0475-0.40333-0.15847-0.40333-0.65903 0-0.58182 0.0249-0.60483 0.74319-0.6879 0.74076-0.0857 0.745-0.0902 1.2982-1.3758 0.5113-1.1881 0.59856-1.2941 1.1068-1.3438 0.74584-0.073 0.83419 0.2483 0.39271 1.4282-0.19762 0.52819-0.3593 1.0313-0.3593 1.118 0 0.0867 0.52239 0.18057 1.1609 0.20852l1.1609 0.0507v1.2038l-1.5173 0.0501-1.5173 0.05-0.4232 0.95693c-0.50419 1.1401-1.2678 4.0463-1.27 4.8336-2e-3 0.61659 0.24478 0.71311 0.78246 0.30647 0.45724-0.34586 1.6041-0.34268 1.7374 7e-3 0.21272 0.55439-1.9751 2.3115-2.878 2.3115-0.25366 0-0.56742-0.12888-0.69724-0.28639zm41.478-0.11837c-0.76963-2.0243-3.4484-10.667-3.3361-10.763 0.21663-0.18629 1.9626-0.87035 2.2215-0.87035 0.12369 0 0.27238 0.0768 0.33042 0.17076 0.058 0.0939 0.63512 1.9176 1.2824 4.0526 1.1057 3.6472 1.3018 4.1944 1.44 4.0173 0.0307-0.0396 0.58305-1.8516 1.2273-4.0271s1.241-4.0442 1.3262-4.1527c0.18344-0.23367 2.3647 0.5644 2.499 0.91436 0.0986 0.25694-3.3241 10.831-3.5514 10.972-0.0872 0.0539-0.47593-0.029-0.86382-0.18417-0.65159-0.26069-0.76086-0.26095-1.4359-3e-3 -0.93636 0.35759-0.95664 0.35536-1.1396-0.12572zm8.4986 0.19615c-0.0473-0.12308-0.0655-2.8158-0.0405-5.9839l0.0454-5.76h2.5797v11.867l-1.2493 0.0506c-0.90478 0.0366-1.273-0.0112-1.3352-0.17321zm7.5672-0.18187c-1.8004-0.79844-2.3345-1.4494-3.1939-3.8929-0.75991-2.1607-0.0999-4.5205 1.7661-6.3147 3.1681-3.0463 7.9459-1.0994 8.8103 3.59 0.10673 0.57902 0.0741 0.66554-0.31886 0.84455-0.24077 0.10972-0.43777 0.33722-0.43777 0.50563 0 0.16842-0.0721 0.35074-0.16015 0.40521-0.0881 0.0546-1.6552 0.18493-3.4826 0.28997s-3.3556 0.2208-3.3962 0.25727c-0.0406 0.0364 0.0502 0.32643 0.20184 0.64441 0.32078 0.67262 1.4711 1.3094 2.3657 1.3094 0.80775 0 1.9692-0.60359 2.5745-1.338l0.51037-0.61919 0.80817 0.68497c1.3367 1.133 1.3372 1.1474 0.0804 2.335-1.3691 1.2937-1.9601 1.5459-3.8015 1.6216-1.2241 0.0504-1.6024-2e-3 -2.3264-0.32327zm-5e-3 -6.2044c0.33457-0.36101 0.56906-0.41353 2.2231-0.49797 1.017-0.052 1.8969-0.14209 1.9552-0.20046 0.0584-0.0585-0.0228-0.37654-0.18044-0.70707-1.0358-2.1722-4.1722-1.3546-4.4852 1.1692-0.0927 0.74763-0.0196 0.78312 0.48726 0.23628zm-133.28 6.214c-0.04717-0.12291-0.06534-2.8155-0.04039-5.9835l0.04536-5.7601 1.2609-0.0507c1.1478-0.0462 1.2692-0.0195 1.3529 0.30095 0.1182 0.45201 0.1384 0.44837 0.91177-0.16413 0.58425-0.46273 0.77629-0.51597 1.8623-0.51597 0.666 0 1.4161 0.0781 1.6669 0.17342 0.42535 0.16172 0.44779 0.22243 0.33364 0.90285-0.15006 0.89453-0.58123 2.5786-0.68737 2.6847-0.04279 0.0429-0.2198-0.0507-0.39335-0.20774-0.49233-0.44558-1.6894-0.37291-2.3666 0.14371-0.31751 0.24213-0.6793 0.38454-0.83004 0.32669-0.23637-0.0907-0.27254 0.3809-0.3133 4.0852l-0.04609 4.1877-1.3354 0.0503c-0.97425 0.0367-1.3586-0.0101-1.4212-0.1732zm12.215 0.0493c-1.5999-0.2712-3.2903-1.9681-3.8903-3.9052-0.7755-2.5037-0.08865-5.0076 1.8274-6.6618 0.85112-0.73476 1.0917-0.84441 2.4109-1.0988 1.6723-0.32233 2.4226-0.20566 3.9418 0.61328 2.19 1.1805 3.3151 4.279 2.5128 6.9204-0.47271 1.5563-1.0122 2.3749-2.1372 3.2428-1.1706 0.90317-2.777 1.2093-4.6654 0.88922zm3.0864-3.5192c0.33912-0.2587 0.70488-0.7685 0.87968-1.2262 0.2594-0.67925 0.27128-0.90831 0.08927-1.7216-0.47547-2.1246-2.6919-2.9406-4.3803-1.6126-1.3701 1.0777-1.3609 3.2004 0.01925 4.4726 0.76559 0.70571 0.78926 0.7139 1.7937 0.62283 0.73018-0.0662 1.182-0.21742 1.5984-0.53501zm9.1241 3.5192c-3.2866-0.55713-5.2722-5.4226-3.5537-8.7081 1.5189-2.9038 4.6589-3.9181 7.5822-2.4493 1.4162 0.71162 2.2358 1.7472 2.7464 3.47 0.45448 1.5334 0.45504 2.1788 0.0032 3.6418-0.45908 1.4864-1.0047 2.3015-2.1126 3.1563-1.1706 0.90317-2.777 1.2093-4.6654 0.88922zm3.0864-3.5192c0.34004-0.25935 0.70494-0.76869 0.881-1.2297 0.2562-0.67087 0.27098-0.91501 0.10021-1.6548-0.27112-1.1746-0.74265-1.7805-1.6574-2.1298-1.714-0.65461-3.5592 0.50258-3.7152 2.3299-0.09633 1.1281 0.17716 1.8387 0.99932 2.5966 0.76559 0.70571 0.78926 0.7139 1.7937 0.62283 0.73018-0.0662 1.182-0.21742 1.5984-0.53501zm5.5076 3.4698c-0.04718-0.12296-0.06536-2.7769-0.04039-5.8976l0.0454-5.674 1.2861-0.0513c1.0103-0.0403 1.3282 6e-3 1.4827 0.21762 0.17492 0.2392 0.27975 0.22132 0.94967-0.16159 0.57259-0.32734 1.0014-0.43102 1.7896-0.43258 1.1009 0 1.4449 0.15145 2.4514 1.0948l0.56437 0.52897 0.38152-0.455c0.20984-0.25032 0.72625-0.62576 1.1476-0.83434 0.66002-0.32682 0.93379-0.36381 1.9778-0.26715 1.69 0.15652 2.8707 0.93177 3.4648 2.2752 0.41232 0.9323 0.41767 1.0094 0.37245 5.363l-0.04589 4.4171h-2.5792l-0.09356-4.2995c-0.05146-2.3648-0.1095-4.3159-0.12898-4.3358-0.58181-0.59618-0.87-0.73756-1.503-0.73756-0.50297 0-0.80969 0.10478-1.0349 0.35367-0.21796 0.24082-0.44503 0.32233-0.71166 0.25545l-0.39157-0.0983-0.0459 4.431-0.0459 4.431h-2.7517l-0.04593-4.3323-0.04592-4.3323-0.45021-0.35412c-0.59551-0.46845-1.6603-0.47352-2.1236-0.0104-0.38674 0.38675-0.68792 0.44701-0.68792 0.13761 0-0.13514-0.05834-0.14807-0.16895-0.0377-0.09924 0.0992-0.18794 1.9762-0.21497 4.5488l-0.04603 4.3799-1.3354 0.0503c-0.9745 0.0367-1.3586-0.0101-1.4212-0.17329zm110.76-6e-3c-0.11913-0.35635-2.3697-10.514-2.3911-10.792-0.0233-0.30284 2.4256-1.1589 2.6364-0.92157 0.0721 0.0812 0.34422 1.4633 0.6047 3.0713 0.73575 4.5419 0.80696 4.9014 0.97092 4.9014 0.0845 0 0.15361-0.19656 0.15361-0.4368 0-0.73645 1.1909-7.3581 1.3524-7.5196 0.0875-0.0876 0.46292-0.0679 0.88788 0.0468 0.55102 0.1484 0.93071 0.14931 1.5092 6e-3 0.42512-0.10705 0.82743-0.1326 0.89403-0.0566 0.0666 0.0759 0.36494 1.647 0.663 3.4915 0.29805 1.8445 0.5746 3.5471 0.61454 3.7836 0.0399 0.23647 0.0784 0.57824 0.0854 0.75959 0.0308 0.7943 0.22655-0.0952 0.84327-3.8316 0.36213-2.194 0.74011-4.0708 0.83994-4.1706 0.2152-0.21521 2.1738 0.27996 2.4569 0.62121 0.12571 0.15145-0.10614 1.466-0.79237 4.4926-0.53353 2.3531-1.0791 4.7802-1.2124 5.3935-0.1333 0.61327-0.31231 1.185-0.39782 1.2705-0.0926 0.0926-0.45446 0.0796-0.89519-0.0323-0.53397-0.13554-0.94666-0.13565-1.4837-3.4e-4 -0.42906 0.10803-0.80088 0.1229-0.87836 0.0351-0.0739-0.0837-0.43137-1.9502-0.7944-4.1477-0.36302-2.1975-0.69682-3.9588-0.74176-3.9138-0.045 0.0448-0.25586 1.1464-0.4687 2.4477-0.66996 4.0961-0.93418 5.4445-1.0992 5.6095-0.0988 0.0988-0.44358 0.0826-0.90038-0.0423-0.52842-0.14439-0.91229-0.15154-1.3411-0.025-0.78564 0.23186-1.0283 0.22367-1.1157-0.0377zm-70.23-12.405c-0.15539-0.2002-0.54312-1.265-0.54312-1.4914 0-0.23134 1.563-1.0535 1.8173-0.95596 0.17208 0.066 0.24648 0.37629 0.24648 1.0278 0 0.91702-0.012 0.93925-0.68569 1.2726-0.49124 0.24303-0.728 0.28476-0.83494 0.14696zm52.095-0.91936c-0.74919-0.90889-0.74845-2.0413 2e-3 -2.9887 0.48212-0.60879 0.60424-0.66969 1.3421-0.66969 0.6924 0 0.89251 0.0833 1.3614 0.56712 0.49428 0.50999 0.54967 0.67119 0.54967 1.6 0 0.9427-0.0496 1.081-0.56712 1.5826-0.47195 0.45747-0.70074 0.54971-1.3633 0.54971-0.71005 0-0.85338-0.0694-1.3246-0.6411z" stroke-width=".17198"/>
  </g>
</svg>
