<svg width="749" height="6627.3" version="1.1" viewBox="0 0 198.17146 1753.4608" xmlns="http://www.w3.org/2000/svg">
  <path d="m97.549 1476.3c-2.1157-0.038-4.2004-0.01-6.2559 0.1019-2.0556 0.1093-4.0818 0.2976-6.0802 0.5746-0.91053 0.1262-1.7901 0.2762-2.6432 0.446-0.85316 0.1699-1.6801 0.3598-2.4867 0.5664-1.6131 0.4133-3.1437 0.8929-4.6349 1.4119s-2.9428 1.0775-4.3982 1.647c-1.4553 0.5696-2.9144 1.1503-4.4199 1.7153s-3.0577 1.1138-4.6994 1.6191c-0.82088 0.2526-1.6642 0.4946-2.5352 0.7219-0.87106 0.2274-1.7696 0.4405-2.7016 0.6357-0.93201 0.1952-1.8974 0.3725-2.9011 0.5287-1.0037 0.1561-2.046 0.2908-3.1321 0.401s-2.2163 0.1959-3.3957 0.2532c-1.1794 0.057-2.4079 0.086-3.6912 0.084-2.0116 0-4.3148-0.096-6.8259-0.2568s-5.2301-0.3897-8.0739-0.6677-5.812-0.6048-8.8217-0.9602-6.0605-0.7393-9.0692-1.1323c-3.8388-0.5014-7.2396-0.9815-10.768-1.4703v265.58c0.10214 0.014 0.14055 0.018 0.2434 0.032 5.0127 0.6974 10.862 1.5189 16.879 2.3048 3.0087 0.393 6.0595 0.7769 9.0692 1.1323s5.9779 0.6822 8.8217 0.9602 5.5628 0.5075 8.0739 0.6682c2.5111 0.1608 4.8144 0.2531 6.8259 0.2569 1.2833 0 2.7-0.04 4.2308-0.1215 1.5307-0.082 3.1757-0.2025 4.916-0.357 3.4806-0.3093 7.3423-0.7536 11.434-1.2905s8.4128-1.1662 12.813-1.8444c4.3999-0.6783 8.8786-1.4058 13.284-2.139 8.8107-1.4664 17.329-2.9564 24.345-4.1249 3.5078-0.5843 6.6401-1.0885 9.2449-1.4687 2.6048-0.3803 4.6822-0.6367 6.0813-0.7266 1.7309-0.1113 3.5316-0.193 5.3898-0.2461 1.8582-0.053 3.7743-0.078 5.7356-0.075 1.9612 0 3.9674 0.032 6.0074 0.087s4.1135 0.1368 6.2079 0.2424c2.0944 0.1057 4.2099 0.2358 6.3345 0.3892 2.1246 0.1533 4.2582 0.3303 6.3888 0.5286 2.1305 0.1985 4.258 0.4187 6.3702 0.6595s4.2092 0.5018 6.2787 0.7824 4.1118 0.5804 6.1144 0.8982 3.9652 0.6534 5.8766 1.0057c0.40826 0.075 0.78564 0.1594 1.1891 0.2362v-255.97c-2.8841-0.088-5.7384-0.2141-8.54-0.4005-3.0719-0.2044-6.095-0.4632-9.0708-0.7664-2.9757-0.3033-5.904-0.6509-8.7865-1.0326-2.8825-0.3816-5.7193-0.7971-8.5116-1.2367-2.7923-0.4395-5.5404-0.9028-8.2455-1.3798-5.4103-0.9539-10.649-1.9627-15.728-2.9431-5.0795-0.9805-9.9999-1.9328-14.773-2.7757-2.3864-0.4215-4.736-0.8158-7.0502-1.1721s-4.5933-0.6751-6.8383-0.9457c-2.2451-0.2707-4.4558-0.4934-6.6347-0.658-2.1789-0.1644-4.3257-0.2706-6.4415-0.3085z" fill="#abd5af" style="paint-order:stroke fill markers"/>
  <g fill="#f5dad5">
    <path d="m198.17 1340.3h-198.17v92.258c0.97831 0.1639 1.862 0.3305 2.8804 0.4925 2.7421 0.4361 5.6152 0.8639 8.5406 1.2779 5.8506 0.8281 11.911 1.5999 17.553 2.2661s10.867 1.2271 15.047 1.6336c1.5902 0.1546 3.2322 0.2501 4.9217 0.293 1.6895 0.043 3.4267 0.032 5.2085-0.024 1.7817-0.056 3.6077-0.1584 5.4746-0.3008s3.7749-0.3246 5.7201-0.5406 3.9275-0.4657 5.9438-0.7426c2.0163-0.2768 4.0664-0.581 6.1469-0.906 4.1609-0.6499 8.4429-1.3835 12.818-2.1497 4.3754-0.7661 8.8442-1.5649 13.378-2.3456s9.1331-1.5432 13.769-2.2366c2.3181-0.3467 4.6453-0.6761 6.9784-0.9819s4.6719-0.588 7.013-0.8402 4.6848-0.4746 7.027-0.6605c2.3421-0.1858 4.6826-0.3355 7.0187-0.4423 1.3614-0.134 2.7692-0.2284 4.2142-0.2879 1.445-0.059 2.9273-0.084 4.4374-0.077 1.5101 0.01 3.0484 0.045 4.6054 0.1101 1.5569 0.065 3.1327 0.1567 4.718 0.2718 3.1707 0.2301 6.3798 0.5526 9.5539 0.9338 3.1741 0.3813 6.3132 0.8216 9.3436 1.2888 3.0305 0.4672 5.9522 0.9612 8.692 1.4491 2.5842 0.4601 4.9696 0.9107 7.168 1.3328z" style="paint-order:stroke fill markers"/>
    <path d="m198.17 322.42h-198.17v1048.1h198.17z" stroke-width="1.1" style="paint-order:stroke fill markers"/>
    <path d="m198.17 250.69c-0.60893 4e-3 -1.1374-8e-3 -1.7735 3e-3 -2.0349 0.0308-4.2052 0.0902-6.4838 0.17621-4.5574 0.17203-9.549 0.45055-14.763 0.82009-5.2138 0.36951-10.649 0.82988-16.095 1.3658-0.88108 0.0867-1.8298 0.21645-2.8421 0.38239-1.0123 0.16592-2.088 0.36788-3.2226 0.59944-2.269 0.46312-4.7736 1.0442-7.477 1.6883-2.7035 0.64401-5.6059 1.3514-8.6711 2.0676-3.0654 0.71613-6.2941 1.4412-9.649 2.1208-1.6775 0.33978-3.3864 0.66804-5.1225 0.97821-1.7362 0.31022-3.4993 0.60213-5.2855 0.8692-1.786 0.26704-3.5946 0.50902-5.4212 0.71931s-3.6716 0.38869-5.5297 0.52866c-1.8583 0.13993-3.73 0.24164-5.611 0.29765-1.8809 0.056-3.7708 0.0667-5.6652 0.0254-1.8944-0.0416-3.7933-0.13512-5.6922-0.28784-1.8989-0.15269-3.7978-0.36435-5.6922-0.64182-1.0919-0.15991-2.1184-0.34088-3.0892-0.53947-0.9708-0.19862-1.8862-0.41479-2.7559-0.64545-0.8697-0.23063-1.6939-0.47571-2.4825-0.73172-0.78858-0.25601-1.5411-0.52313-2.2686-0.79787-1.4549-0.54948-2.8077-1.1296-4.1383-1.7141-1.3303-0.58444-2.6382-1.1733-4.0039-1.7394-1.3657-0.56612-2.7892-1.1094-4.35-1.604-0.78046-0.24725-1.5953-0.48233-2.4546-0.70175-0.85925-0.21941-1.7627-0.42333-2.7207-0.60821-0.95804-0.18495-1.9705-0.35084-3.0474-0.49456-1.0768-0.14369-2.2183-0.26532-3.434-0.3612-1.2156-0.0959-2.5055-0.16637-3.8798-0.20775-1.3743-0.0414-2.8331-0.0533-4.3862-0.0336-2.0995 0.0267-4.3373 0.12364-6.6616 0.28009-2.3242 0.15644-4.7349 0.37239-7.1804 0.6356-2.4454 0.26323-4.9252 0.57382-7.3881 0.92087s-4.9085 0.73048-7.2852 1.1384c-2.3767 0.40793-4.6849 0.8403-6.8719 1.2862-1.6991 0.34639-3.2464 0.70392-4.7754 1.0609v64.88h198.17z" stroke-width=".26458" style="paint-order:stroke fill markers"/>
  </g>
  <path d="m197.81 177.77h-197.44v39.794c1.9857 0.40763 4.0002 0.81545 6.2322 1.201 2.8786 0.49716 5.9238 0.97194 9.0382 1.4149s6.2978 0.85396 9.4522 1.2232c3.1544 0.36922 6.2799 0.69665 9.2785 0.97255 2.9986 0.27593 5.8704 0.49995 8.5173 0.66301s5.0691 0.26493 7.1686 0.29559c1.6096 0.0236 3.3324-0.0109 5.1532-0.0961s3.7397-0.22073 5.7418-0.39998c2.002-0.17925 4.0872-0.40223 6.2405-0.66094 2.1534-0.25868 4.375-0.55344 6.6497-0.87695 4.5494-0.64703 9.311-1.4087 14.167-2.2273 4.8552-0.81855 9.8035-1.6937 14.725-2.5668 4.9214-0.87306 9.816-1.7443 14.564-2.5549 4.748-0.81057 9.3494-1.5605 13.684-2.1916 2.1675-0.31553 4.2687-0.60136 6.288-0.85008s3.9569-0.46059 5.7981-0.62787 3.5857-0.29 5.2188-0.36122c1.6332-0.0712 3.155-0.0906 4.5501-0.0512 2.2834 0.0646 4.4882 0.15532 6.6172 0.26872 2.129 0.11339 4.1822 0.24935 6.1624 0.40514 1.9802 0.1558 3.8876 0.33116 5.7247 0.52297 1.8371 0.19182 3.6038 0.40022 5.3036 0.62167 3.3995 0.44289 6.5301 0.93883 9.4139 1.4619 2.8838 0.52312 5.521 1.0735 7.9344 1.6257 1.3981 0.31994 2.5661 0.63209 3.8184 0.94827z" fill="#9ebcbe" style="paint-order:stroke fill markers"/>
  <path d="m197.81 128.73c-0.81181 0.0216-1.3235 0.0151-2.1544 0.0403-3.2427 0.0986-6.6129 0.22545-9.9715 0.38962-3.3586 0.16418-6.7052 0.36568-9.9016 0.61184-3.1964 0.24617-6.2425 0.53705-8.9989 0.88158-1.3782 0.17228-2.6839 0.35817-3.8999 0.55811s-2.3423 0.41422-3.3615 0.64388c-4.2785 0.9641-8.4078 1.8462-12.358 2.6524-3.9499 0.80621-7.7204 1.5362-11.283 2.1952s-6.9164 1.2474-10.032 1.7699c-3.116 0.52247-5.9943 0.97903-8.6049 1.3756-5.2212 0.79324-9.373 1.3457-12.219 1.6996-2.8464 0.35391-4.3873 0.50953-4.3873 0.50953-1.391 0.11462-2.7339 0.18342-4.0327 0.21136-1.299 0.0279-2.5539 0.015-3.7692-0.0341-1.2154-0.0491-2.391-0.1346-3.5311-0.25115-1.1401-0.11653-2.2449-0.2644-3.3181-0.43872-1.0732-0.17434-2.1149-0.37489-3.1295-0.59737-1.0146-0.2225-2.0018-0.46709-2.9662-0.72813-1.9288-0.52204-3.7652-1.1112-5.5432-1.7296-3.556-1.2368-6.8778-2.5892-10.231-3.7491-1.677-0.57996-3.3623-1.1118-5.0889-1.557-0.86338-0.22258-1.7373-0.42346-2.6256-0.5979-0.88833-0.17444-1.7908-0.32257-2.7125-0.43925-1.4604-0.18487-2.9596-0.34136-4.4912-0.47024-1.5317-0.12887-3.0956-0.23001-4.6849-0.30385-1.5893-0.0738-3.2043-0.12024-4.8373-0.14004-1.6331-0.0198-3.2842-0.0131-4.9474 0.0202s-3.3382 0.0929-5.0178 0.17828c-1.6795 0.0854-3.3636 0.1963-5.0455 0.33279-1.6821 0.13648-3.3618 0.2986-5.0326 0.48524-1.6709 0.18662-3.3329 0.39777-4.9789 0.63353-1.646 0.2358-3.276 0.49633-4.8834 0.7803-1.6074 0.284-3.1919 0.59174-4.7468 0.92294-1.555 0.3312-3.0805 0.68552-4.5693 1.063-0.028 7e-3 -0.053749 0.0156-0.081647 0.0227v43.309h197.44z" fill="#9ebcbe" stroke-width=".99998" style="paint-order:stroke fill markers"/>
  <path d="m111.33 85.682c-0.5352-0.6804-0.47095-1.7378 0.18435-3.0343 0.37454-0.74106 0.71496-1.9159 1.1073-3.8217 0.81051-3.9369 1.267-6.1344 1.3648-6.5696 0.079-0.35165 0.0151-0.38201-0.90501-0.42998l-0.99-0.0513-0.0525-0.81867c-0.0648-1.0106 0.052-1.0699 1.7233-0.8749 1.1392 0.13292 1.2698 0.18876 1.4828 0.63407 0.20298 0.42439 0.18473 0.75056-0.13955 2.4937-0.20519 1.103-0.51673 2.6237-0.69231 3.3793-0.17558 0.75562-0.29899 1.3941-0.27424 1.4188 0.0248 0.0247 0.46034-0.59267 0.96796-1.372 0.50763-0.77935 1.2329-1.7532 1.6117-2.1642 0.60135-0.65234 0.75493-0.73392 1.2105-0.64279 0.29494 0.0591 0.88049 0.45767 1.3469 0.91709 1.8591 1.8312 2.0011 4.9479 0.37231 8.1726-0.98718 1.9544-1.4955 2.5295-2.2357 2.5295-0.42986 0-0.7032-0.16853-1.2691-0.7825-0.78911-0.85607-0.80929-1.0687-0.13738-1.4475 0.40342-0.2275 0.48111-0.22178 0.79031 0.0579 0.58778 0.53196 0.90537 0.28184 1.7778-1.4 0.79324-1.5291 0.82628-1.65 0.82265-3.0091-3e-3 -1.0032-0.0959-1.6166-0.31967-2.1039-0.38416-0.83655-0.9189-1.34-1.3406-1.2619-0.35163 0.0651-2.1409 2.6524-3.5486 5.1315-0.75564 1.3307-0.97876 1.9161-1.2026 3.1556-0.40707 2.2546-0.9149 2.8358-1.6553 1.8945zm-98.288-0.62408c-0.1403-0.21411-0.38404-0.89125-0.54166-1.5048-0.70071-2.7276 0.23646-7.0692 1.9307-8.9446 0.59894-0.66294 0.70304-0.7124 1.3238-0.6292 0.37054 0.0501 1.0054 0.32864 1.4108 0.61977 0.89201 0.64058 1.001 0.64922 1.2515 0.0994 0.1672-0.36693 0.31059-0.42991 0.97889-0.42991 0.57079 0 0.81267 0.0774 0.8925 0.28535 0.11615 0.3027-0.0725 1.6017-0.72008 4.96-0.79018 4.0975-0.76748 4.2622 0.35436 2.5721 0.34255-0.5161 0.67813-0.93834 0.74573-0.93834s0.29486 0.23257 0.50502 0.51682l0.38211 0.51681-0.71744 1.074c-1.0299 1.5417-1.6876 2.1918-2.2172 2.1918-0.24629 0-0.54068-0.0929-0.65418-0.20638-0.35097-0.35097-0.24105-2.8592 0.2288-5.2205 0.23934-1.2029 0.39829-2.2239 0.35322-2.269-0.11142-0.11141-0.62474 0.74555-1.674 2.7945-1.1864 2.3168-3.0015 4.9014-3.4421 4.9014-0.0747 0-0.25062-0.17518-0.39091-0.3893zm1.3997-3.0933c0.28761-0.40202 0.79868-1.28 1.1357-1.951s0.85455-1.6301 1.15-2.1312l0.53723-0.91117-0.55966-0.57739c-0.30781-0.31759-0.68378-0.57746-0.83549-0.57746-0.1517 0-0.35873-0.0829-0.46007-0.18421-0.63527-0.63531-1.9427 3.4245-1.947 6.0458-2e-3 1.2577 0.23489 1.327 0.97925 0.28665zm72.913 3.3679c-0.19823-0.19824-0.12493-1.0413 0.13463-1.5482 1.0897-2.1284 1.2985-2.8328 1.2985-4.3812 0-1.6925-0.24631-2.5123-0.98718-3.2858-0.87726-0.91585-2.252-0.47353-2.6026 0.83746-0.11334 0.4238-0.21773 0.49543-0.72205 0.49543-0.56192 0-0.58744-0.0267-0.54441-0.57005 0.11039-1.3935 1.616-3.1275 2.7156-3.1275 1.139 0 2.1944 0.84721 2.8212 2.2645 0.48734 1.1021 0.76421 3.2897 0.55915 4.4179-0.1849 1.0173-0.0104 1.2887 0.37758 0.58702 1.3684-2.4749 1.3924-2.5602 1.3924-4.945 0-1.8875 0.0416-2.2411 0.26866-2.2851 0.36541-0.0708 1.6264 1.4582 2.1553 2.6135 0.50998 1.114 0.7208 3.3415 0.44067 4.6563-0.44847 2.1048-0.49127 1.9919 0.3911 1.0319 0.43466-0.47294 0.97807-1.1695 1.2076-1.5478 0.43421-0.71591 1.298-3.4549 1.298-4.1158 0-0.20884-0.27087-0.69621-0.60193-1.083-0.6771-0.79105-0.72096-1.004-0.32365-1.5712l0.27828-0.39728 0.6612 0.64565c0.66863 0.65286 1.19 1.8162 1.19 2.6552 0 0.75283-0.66158 3.1062-1.1836 4.2104-0.93314 1.9738-3.8761 4.6517-4.973 4.5251-0.4312-0.0497-0.46217-0.10712-0.43072-0.79787 0.0186-0.40935 0.19185-1.012 0.38492-1.3392 0.42969-0.72826 1.0437-3.0663 1.0411-3.9644-3e-3 -0.9464-0.19027-1.9491-0.36458-1.9491-0.0822 0-0.14947 0.15074-0.14947 0.33508 0 0.67372-0.86798 3.0578-1.415 3.8866-0.30918 0.46845-1.2323 1.5289-2.0514 2.3565-1.3583 1.3725-1.932 1.7244-2.2662 1.3902zm40.46-0.34578c-0.76035-1.9927-0.88092-4.3573-0.33168-6.5048 0.46088-1.8021 1.0894-3.1316 1.8497-3.9125 0.82186-0.84422 1.4192-0.8541 2.5983-0.0429 0.48127 0.33111 0.94187 0.60196 1.0236 0.60196 0.0817 0 0.23859-0.19773 0.3487-0.43933 0.17958-0.39416 0.28401-0.43401 1.0149-0.38695 0.65237 0.0416 0.82766 0.12019 0.87948 0.3926 0.0718 0.37759-0.11694 1.5395-0.85471 5.2616-0.71985 3.6316-0.66881 3.8733 0.44899 2.1259 0.32878-0.51396 0.66159-0.93451 0.73956-0.93451 0.078 0 0.31373 0.23257 0.52388 0.51682l0.38211 0.51681-0.67697 0.988c-1.0405 1.5186-1.941 2.3165-2.5374 2.2484l-0.49482-0.0566-0.0499-1.5156c-0.0444-1.3491 0.21349-3.2792 0.76254-5.7075 0.22343-0.98813-0.38213-0.15652-1.5162 2.0822-1.1548 2.2797-3.1234 5.1016-3.6244 5.1956-0.19899 0.0373-0.36302-0.10758-0.48571-0.4291zm1.5703-3.1961c0.3367-0.4955 0.91067-1.4813 1.2755-2.1907 0.36481-0.70947 0.84989-1.5881 1.078-1.9525l0.41465-0.66261-0.40029-0.42796c-0.22016-0.2353-0.69045-0.56856-1.0451-0.74048l-0.64478-0.31259-0.34452 0.43797c-1.0097 1.2836-1.8593 6.7683-1.0459 6.7518 0.0552 0 0.37581-0.40742 0.71251-0.90285zm-29.9 3.1062c-0.36023-0.36024-0.22703-1.5123 0.55275-4.781 0.41745-1.7499 0.8106-3.3117 0.87365-3.4707 0.0915-0.23068-6.5e-4 -0.3001-0.4581-0.34391-0.54094-0.052-0.5757-0.0956-0.62571-0.78741-0.0358-0.4942 0.0202-0.75218 0.17198-0.79294 0.12371-0.0331 0.63192-0.19532 1.1293-0.36023 1.6689-0.55308 1.7384-0.23926 0.75084 3.391-0.36656 1.3475-0.75895 2.9416-0.87198 3.5424-0.11302 0.6008-0.25181 1.213-0.30842 1.3605-0.10427 0.2717 0.11788 0.2611 0.84938-0.0403 0.22493-0.0928 0.35411 0.0273 0.56015 0.52032 0.32875 0.78683 0.21334 0.96083-1.0259 1.5471-1.0016 0.47382-1.2995 0.51399-1.598 0.21546zm4.9311-0.08c-0.56483-0.6853-0.15163-3.9644 0.97525-7.7396 0.0896-0.30017 0.0327-0.38395-0.29202-0.42991-0.33541-0.0475-0.40333-0.15847-0.40333-0.65903 0-0.58182 0.0249-0.60483 0.74319-0.6879 0.74076-0.0857 0.745-0.0902 1.2982-1.3758 0.5113-1.1881 0.59856-1.2941 1.1068-1.3438 0.74584-0.073 0.83419 0.2483 0.39271 1.4282-0.19762 0.52819-0.3593 1.0313-0.3593 1.118s0.52239 0.18057 1.1609 0.20852l1.1609 0.0507v1.2038l-1.5173 0.0501-1.5173 0.05-0.4232 0.95693c-0.50419 1.1401-1.2678 4.0463-1.27 4.8336-2e-3 0.61659 0.24478 0.71311 0.78246 0.30647 0.45724-0.34586 1.6041-0.34268 1.7374 7e-3 0.21272 0.55439-1.9751 2.3115-2.878 2.3115-0.25366 0-0.56742-0.12888-0.69724-0.28639zm41.478-0.11837c-0.76963-2.0243-3.4484-10.667-3.3361-10.763 0.21663-0.18629 1.9626-0.87035 2.2215-0.87035 0.12369 0 0.27238 0.0768 0.33042 0.17076 0.058 0.0939 0.63512 1.9176 1.2824 4.0526 1.1057 3.6472 1.3018 4.1944 1.44 4.0173 0.0307-0.0396 0.58305-1.8516 1.2273-4.0271s1.241-4.0442 1.3262-4.1527c0.18344-0.23367 2.3647 0.5644 2.499 0.91436 0.0986 0.25694-3.3241 10.831-3.5514 10.972-0.0872 0.0539-0.47593-0.029-0.86382-0.18417-0.65159-0.26069-0.76086-0.26095-1.4359-3e-3 -0.93636 0.35759-0.95664 0.35536-1.1396-0.12572zm8.4986 0.19615c-0.0473-0.12308-0.0655-2.8158-0.0405-5.9839l0.0454-5.76h2.5797v11.867l-1.2493 0.0506c-0.90478 0.0366-1.273-0.0112-1.3352-0.17321zm7.5672-0.18187c-1.8004-0.79844-2.3345-1.4494-3.1939-3.8929-0.75991-2.1607-0.0999-4.5205 1.7661-6.3147 3.1681-3.0463 7.9459-1.0994 8.8103 3.59 0.10673 0.57902 0.0741 0.66554-0.31886 0.84455-0.24077 0.10972-0.43777 0.33722-0.43777 0.50563 0 0.16842-0.0721 0.35074-0.16015 0.40521-0.0881 0.0546-1.6552 0.18493-3.4826 0.28997s-3.3556 0.2208-3.3962 0.25727c-0.0406 0.0364 0.0502 0.32643 0.20184 0.64441 0.32078 0.67262 1.4711 1.3094 2.3657 1.3094 0.80775 0 1.9692-0.60359 2.5745-1.338l0.51037-0.61919 0.80817 0.68497c1.3367 1.133 1.3372 1.1474 0.0804 2.335-1.3691 1.2937-1.9601 1.5459-3.8015 1.6216-1.2241 0.0504-1.6024-2e-3 -2.3264-0.32327zm-5e-3 -6.2044c0.33457-0.36101 0.56906-0.41353 2.2231-0.49797 1.017-0.052 1.8969-0.14209 1.9552-0.20046 0.0584-0.0585-0.0228-0.37654-0.18044-0.70707-1.0358-2.1722-4.1722-1.3546-4.4852 1.1692-0.0927 0.74763-0.0196 0.78312 0.48726 0.23628zm-133.28 6.214c-0.0472-0.12291-0.0653-2.8155-0.0404-5.9835l0.0454-5.7601 1.2609-0.0507c1.1478-0.0462 1.2692-0.0195 1.3529 0.30095 0.1182 0.45201 0.1384 0.44837 0.91177-0.16413 0.58425-0.46273 0.7763-0.51597 1.8623-0.51597 0.666 0 1.4161 0.0781 1.6669 0.17342 0.42535 0.16172 0.44779 0.22243 0.33364 0.90285-0.15006 0.89453-0.58123 2.5786-0.68737 2.6847-0.0428 0.0429-0.21979-0.0507-0.39335-0.20774-0.49234-0.44558-1.6894-0.37291-2.3666 0.14371-0.3175 0.24213-0.67929 0.38454-0.83003 0.32669-0.23637-0.0907-0.27254 0.3809-0.31331 4.0852l-0.0461 4.1877-1.3354 0.0503c-0.97425 0.0367-1.3586-0.0101-1.4212-0.1732zm12.216 0.0493c-1.5999-0.2712-3.2903-1.9681-3.8903-3.9052-0.7755-2.5037-0.0887-5.0076 1.8274-6.6618 0.85112-0.73476 1.0917-0.84441 2.4109-1.0988 1.6723-0.32233 2.4226-0.20566 3.9418 0.61328 2.19 1.1805 3.3151 4.279 2.5128 6.9204-0.47271 1.5563-1.0122 2.3749-2.1372 3.2428-1.1706 0.90317-2.777 1.2093-4.6654 0.88922zm3.0864-3.5192c0.33912-0.2587 0.70488-0.7685 0.87968-1.2262 0.25941-0.67925 0.27128-0.90831 0.0893-1.7216-0.47547-2.1246-2.6919-2.9406-4.3803-1.6126-1.3701 1.0777-1.3609 3.2004 0.0193 4.4726 0.76559 0.70571 0.78927 0.7139 1.7937 0.62283 0.73018-0.0662 1.182-0.21742 1.5984-0.53501zm9.1242 3.5192c-3.2866-0.55713-5.2722-5.4226-3.5537-8.7081 1.5189-2.9038 4.6589-3.9181 7.5822-2.4493 1.4162 0.71162 2.2358 1.7472 2.7464 3.47 0.45448 1.5334 0.45504 2.1788 3e-3 3.6418-0.45907 1.4864-1.0047 2.3015-2.1126 3.1563-1.1706 0.90317-2.777 1.2093-4.6654 0.88922zm3.0864-3.5192c0.34004-0.25935 0.70494-0.76869 0.881-1.2297 0.2562-0.67087 0.27098-0.91501 0.1002-1.6548-0.27111-1.1746-0.74264-1.7805-1.6574-2.1298-1.714-0.65461-3.5592 0.50258-3.7152 2.3299-0.0963 1.1281 0.17716 1.8387 0.99932 2.5966 0.76558 0.70571 0.78926 0.7139 1.7937 0.62283 0.73018-0.0662 1.182-0.21742 1.5984-0.53501zm5.5076 3.4698c-0.0472-0.12296-0.0654-2.7769-0.0404-5.8976l0.0454-5.674 1.2861-0.0513c1.0103-0.0403 1.3282 6e-3 1.4827 0.21762 0.17491 0.2392 0.27975 0.22132 0.94966-0.16159 0.5726-0.32734 1.0014-0.43102 1.7896-0.43258 1.1009 0 1.4449 0.15145 2.4514 1.0948l0.56437 0.52897 0.38152-0.455c0.20983-0.25032 0.72624-0.62576 1.1476-0.83434 0.66002-0.32682 0.93379-0.36381 1.9778-0.26715 1.69 0.15652 2.8707 0.93177 3.4648 2.2752 0.41232 0.9323 0.41768 1.0094 0.37246 5.363l-0.0459 4.4171h-2.5792l-0.0936-4.2995c-0.0515-2.3648-0.1095-4.3159-0.12898-4.3358-0.58182-0.59618-0.87001-0.73756-1.503-0.73756-0.50297 0-0.80969 0.10478-1.0349 0.35367-0.21796 0.24082-0.44503 0.32233-0.71166 0.25545l-0.39157-0.0983-0.0459 4.431-0.0459 4.431h-2.7517l-0.0459-4.3323-0.0459-4.3323-0.45021-0.35412c-0.59551-0.46845-1.6603-0.47352-2.1236-0.0104-0.38675 0.38675-0.68792 0.44701-0.68792 0.13761 0-0.13514-0.0583-0.14807-0.16895-0.0377-0.0992 0.0992-0.18793 1.9762-0.21497 4.5488l-0.046 4.3799-1.3354 0.0503c-0.9745 0.0367-1.3586-0.0101-1.4212-0.17329zm110.76-6e-3c-0.11913-0.35635-2.3697-10.514-2.3911-10.792-0.0233-0.30284 2.4256-1.1589 2.6364-0.92157 0.0721 0.0812 0.34422 1.4633 0.6047 3.0713 0.73575 4.5419 0.80696 4.9014 0.97092 4.9014 0.0845 0 0.15361-0.19656 0.15361-0.4368 0-0.73645 1.1909-7.3581 1.3524-7.5196 0.0875-0.0876 0.46292-0.0679 0.88788 0.0468 0.55102 0.1484 0.93071 0.14931 1.5092 6e-3 0.42512-0.10705 0.82743-0.1326 0.89403-0.0566 0.0666 0.0759 0.36494 1.647 0.663 3.4915 0.29805 1.8445 0.5746 3.5471 0.61454 3.7836 0.0399 0.23647 0.0784 0.57824 0.0854 0.75959 0.0308 0.7943 0.22655-0.0952 0.84327-3.8316 0.36213-2.194 0.74011-4.0708 0.83994-4.1706 0.2152-0.21521 2.1738 0.27996 2.4569 0.62121 0.12571 0.15145-0.10614 1.466-0.79237 4.4926-0.53353 2.3531-1.0791 4.7802-1.2124 5.3935-0.1333 0.61327-0.31231 1.185-0.39782 1.2705-0.0926 0.0926-0.45446 0.0796-0.89519-0.0323-0.53397-0.13554-0.94666-0.13565-1.4837-3.4e-4 -0.42906 0.10803-0.80088 0.1229-0.87836 0.0351-0.0739-0.0837-0.43137-1.9502-0.7944-4.1477-0.36302-2.1975-0.69682-3.9588-0.74176-3.9138-0.045 0.0448-0.25586 1.1464-0.4687 2.4477-0.66996 4.0961-0.93418 5.4445-1.0992 5.6095-0.0988 0.0988-0.44358 0.0826-0.90038-0.0423-0.52842-0.14439-0.91229-0.15154-1.3411-0.025-0.78564 0.23186-1.0283 0.22367-1.1157-0.0377zm-70.23-12.405c-0.15539-0.2002-0.54312-1.265-0.54312-1.4914 0-0.23134 1.563-1.0535 1.8173-0.95596 0.17208 0.066 0.24648 0.37629 0.24648 1.0278 0 0.91702-0.012 0.93925-0.68569 1.2726-0.49124 0.24303-0.728 0.28476-0.83494 0.14696zm52.095-0.91936c-0.74919-0.90889-0.74845-2.0413 2e-3 -2.9887 0.48212-0.60879 0.60424-0.66969 1.3421-0.66969 0.6924 0 0.89251 0.0833 1.3614 0.56712 0.49428 0.50999 0.54967 0.67119 0.54967 1.6 0 0.9427-0.0496 1.081-0.56712 1.5826-0.47195 0.45747-0.70074 0.54971-1.3633 0.54971-0.71005 0-0.85338-0.0694-1.3246-0.6411z" stroke-width=".17198"/>
</svg>
