<?xml version="1.0" encoding="UTF-8" standalone="no"?>
<svg
   xmlns:dc="http://purl.org/dc/elements/1.1/"
   xmlns:cc="http://creativecommons.org/ns#"
   xmlns:rdf="http://www.w3.org/1999/02/22-rdf-syntax-ns#"
   xmlns:svg="http://www.w3.org/2000/svg"
   xmlns="http://www.w3.org/2000/svg"
   xmlns:xlink="http://www.w3.org/1999/xlink"
   viewBox="0 0 1046 123"
   height="123"
   width="1046"
   id="svg3769"
   version="1.1">
  <metadata
     id="metadata3775">
    <rdf:RDF>
      <cc:Work
         rdf:about="">
        <dc:format>image/svg+xml</dc:format>
        <dc:type
           rdf:resource="http://purl.org/dc/dcmitype/StillImage" />
        <dc:title></dc:title>
      </cc:Work>
    </rdf:RDF>
  </metadata>
  <defs
     id="defs3773" />
  <image
     xlink:href="title.png"
     width="1046"
     height="123"
     preserveAspectRatio="none"
     id="image3777"
     x="0"
     y="0" />
  <path
     id="path3779"
     d="m 595.07258,107.36514 c -3.11198,-3.95624 -2.73841,-10.10483 1.07197,-17.643657 2.17784,-4.30886 4.1572,-11.140241 6.43857,-22.221483 4.71281,-22.891423 7.36734,-35.669469 7.93571,-38.199903 0.45925,-2.044638 0.0879,-2.221083 -5.26235,-2.5 L 599.5,26.5 599.19479,21.7398 c -0.37677,-5.876336 0.30254,-6.221231 10.02011,-5.087371 6.62434,0.772937 7.38354,1.097582 8.62187,3.686796 1.18029,2.46788 1.07416,4.364348 -0.81143,14.5 -1.19313,6.413426 -3.00463,15.255578 -4.02555,19.649226 -1.02092,4.393648 -1.73848,8.106196 -1.59457,8.250107 0.14392,0.143911 2.67668,-3.446158 5.62837,-7.977932 2.95169,-4.531773 7.16881,-10.194637 9.37138,-12.584143 3.4966,-3.793362 4.38959,-4.267572 7.0386,-3.737769 1.71494,0.342988 5.11975,2.661241 7.83172,5.332438 10.81019,10.647635 11.63579,28.770256 2.16488,47.520713 C 637.7,102.65622 634.74457,106 630.44027,106 c -2.49947,0 -4.08883,-0.97994 -7.37958,-4.54999 -4.58842,-4.977848 -4.70575,-6.213963 -0.79885,-8.416843 2.34574,-1.322633 2.7975,-1.289439 4.59542,0.337653 3.41773,3.093005 5.26443,1.638805 10.33734,-8.140222 4.61241,-8.891324 4.80452,-9.594021 4.78344,-17.496974 -0.0156,-5.833466 -0.55741,-9.399651 -1.85877,-12.233624 -2.23378,-4.864476 -5.3431,-7.791416 -7.79487,-7.337653 C 630.27984,48.540746 619.87599,63.585042 611.69024,78 c -4.39383,7.737466 -5.69114,11.14178 -6.99242,18.349136 -2.36699,13.109874 -5.31986,16.489414 -9.62524,11.016004 z M 23.562915,103.73637 c -0.815754,-1.245 -2.233052,-5.182504 -3.14955,-8.750005 C 16.33897,79.12664 21.788301,53.88137 31.639913,42.976813 c 3.482605,-3.854827 4.087927,-4.142527 7.697302,-3.658409 2.154595,0.288992 5.846212,1.910575 8.203593,3.603518 5.186738,3.724833 5.820541,3.77518 7.277238,0.578078 0.972224,-2.133799 1.805975,-2.5 5.6919,-2.5 3.318959,0 4.725407,0.449746 5.189638,1.659511 0.675337,1.7599 -0.421274,9.313411 -4.18703,28.840489 -4.594671,23.825357 -4.462672,24.783476 2.060469,14.955948 C 65.564822,83.455177 67.516092,81 67.909179,81 c 0.393087,0 1.71452,1.352323 2.936517,3.005163 l 2.221814,3.005164 -4.171657,6.244836 C 62.907516,102.21951 59.08337,106 56.003833,106 54.571725,106 52.86,105.46 52.2,104.8 50.159211,102.75921 50.798401,88.17473 53.530383,74.44449 54.922094,67.450109 55.846344,61.51301 55.58427,61.250937 54.936407,60.603073 51.951614,65.585789 45.850607,77.5 38.952129,90.971533 28.398114,106 25.835962,106 c -0.434421,0 -1.457292,-1.01864 -2.273047,-2.26363 z M 31.701548,85.75 c 1.672323,-2.3375 4.644031,-7.442537 6.603796,-11.344526 1.959765,-3.90199 4.968914,-9.478608 6.686998,-12.392485 L 48.11613,56.71503 44.861898,53.357515 C 43.072071,51.510882 40.885941,50 40.003833,50 39.121725,50 37.917906,49.517906 37.32868,48.92868 33.634818,45.234818 26.032676,68.841185 26.007554,84.083333 25.995501,91.39645 27.373356,91.799757 31.701548,85.75 Z m 423.965122,19.58333 c -1.15266,-1.15265 -0.72639,-6.054609 0.78283,-9.00229 C 462.78584,83.95539 464,79.858808 464,70.855607 464,61.014674 462.56775,56.247528 458.25986,51.75 453.15895,46.424538 445.16514,48.996626 443.12652,56.619302 442.46749,59.08352 441.86049,59.5 438.92805,59.5 c -3.26735,0 -3.41574,-0.15537 -3.16551,-3.314424 C 436.40438,48.082828 445.159,38 451.55254,38 c 6.62288,0 12.75992,4.92616 16.40414,13.167484 2.83372,6.4084 4.44364,19.128427 3.25129,25.688597 -1.07516,5.915367 -0.0603,7.493226 2.1955,3.413432 C 481.36043,65.878632 481.5,65.382969 481.5,51.515762 c 0,-10.975166 0.24171,-13.031107 1.56214,-13.287146 2.12473,-0.411998 9.45681,8.478943 12.53238,15.196882 2.96537,6.477213 4.19118,19.429616 2.56233,27.074502 -2.60767,12.23894 -2.85654,11.582322 2.27409,6 2.52748,-2.75 5.68719,-6.8 7.02158,-9 C 509.97734,73.337322 515,57.41127 515,53.568132 c 0,-1.214474 -1.575,-4.048168 -3.5,-6.297098 -3.93713,-4.599652 -4.19217,-5.837807 -1.88191,-9.136166 l 1.61809,-2.310144 3.84467,3.75422 C 518.96866,43.375296 522,50.139348 522,55.018176 c 0,4.377233 -3.84687,18.061102 -6.88244,24.481824 -5.4259,11.476644 -22.53818,27.04772 -28.91604,26.31174 -2.50728,-0.28932 -2.68735,-0.62291 -2.50449,-4.63938 0.10837,-2.380207 1.11556,-5.884426 2.2382,-7.787156 2.49847,-4.234599 6.06876,-17.829694 6.05376,-23.051817 C 491.9732,64.830422 490.88265,59 489.86916,59 489.39112,59 489,59.87677 489,60.948378 c 0,3.917699 -5.04703,17.780197 -8.22795,22.59943 -1.79777,2.723706 -7.16544,8.889692 -11.92814,13.702192 -7.89825,7.98083 -11.23368,10.02689 -13.17724,8.08333 z m 235.26205,-2.01057 c -4.42115,-11.586466 -5.12225,-25.336161 -1.92863,-37.823125 2.67988,-10.478228 6.33463,-18.208887 10.75512,-22.749635 4.77886,-4.908867 8.25212,-4.966339 15.10847,-0.25 2.79846,1.925 5.47672,3.5 5.9517,3.5 0.47497,0 1.38738,-1.149592 2.02757,-2.55465 1.0442,-2.291771 1.65148,-2.523301 5.90152,-2.25 3.7933,0.24393 4.81254,0.698965 5.11384,2.283041 0.41758,2.195401 -0.67994,8.951702 -4.96981,30.594036 -4.18569,21.116721 -3.88892,22.521906 2.6107,12.361376 C 733.41097,83.445212 735.34612,81 735.79952,81 c 0.4534,0 1.82418,1.352323 3.04618,3.005163 l 2.22181,3.005164 -3.93635,5.744836 C 731.0808,101.58527 725.84487,106.22485 722.37724,105.8287 L 719.5,105.5 719.21015,96.686974 C 718.95214,88.84209 720.45151,77.619579 723.64407,63.5 c 1.29916,-5.745764 -2.22195,-0.910221 -8.8162,12.10728 -6.71489,13.25565 -18.16146,29.66408 -21.07496,30.21055 -1.15707,0.21703 -2.11083,-0.62558 -2.82419,-2.49507 z m 9.1309,-18.584606 C 702.01742,81.857169 705.35485,76.125 707.47614,72 c 2.12129,-4.125 4.94186,-9.233846 6.26794,-11.35299 l 2.41104,-3.852991 -2.32756,-2.488271 c -1.28016,-1.36855 -4.01467,-3.306178 -6.07669,-4.305842 l -3.74914,-1.817569 -2.00329,2.546774 c -5.8709,7.463638 -10.81133,39.355086 -6.08177,39.259043 0.32083,-0.0065 2.18516,-2.369015 4.14295,-5.25 z M 526.2,102.8 c -2.09458,-2.09458 -1.32008,-8.793571 3.21407,-27.8 2.42734,-10.175 4.71335,-19.256291 5.08001,-20.180647 0.53214,-1.341502 -0.005,-1.74509 -2.6637,-2 -3.14538,-0.301613 -3.34749,-0.555944 -3.63832,-4.578502 -0.20777,-2.873602 0.11754,-4.37349 1,-4.61063 0.71936,-0.193314 3.67441,-1.135818 6.56676,-2.094454 9.70383,-3.216215 10.10786,-1.39148 4.36585,19.71756 -2.13143,7.83567 -4.41304,17.104746 -5.07025,20.597946 -0.6572,3.4932 -1.4642,7.053033 -1.79334,7.91074 -0.60632,1.580047 0.68539,1.518237 4.93883,-0.236326 1.3079,-0.539517 2.05899,0.15819 3.25706,3.025573 1.91159,4.575068 1.24052,5.587109 -5.96503,8.99588 -5.82383,2.75511 -7.55612,2.98868 -9.29194,1.25286 z m 28.67244,-0.46525 c -3.28428,-3.984981 -0.88169,-23.051697 5.67077,-45.002726 0.52109,-1.745646 0.1903,-2.232656 -1.69803,-2.5 C 556.89488,54.555906 556.5,53.910667 556.5,51 c 0,-3.382912 0.14457,-3.516727 4.32137,-4 4.30729,-0.49837 4.3319,-0.524446 7.54886,-8 2.973,-6.908646 3.48042,-7.524748 6.4355,-7.813871 4.33681,-0.424312 4.8505,1.443996 2.28347,8.305018 C 575.94014,42.56228 575,45.487584 575,45.991823 c 0,0.504238 3.0375,1.049858 6.75,1.212487 L 588.5,47.5 v 3.5 3.5 l -8.82272,0.289993 -8.82271,0.289994 -2.46079,5.564282 c -2.9317,6.629101 -7.37181,23.527976 -7.38466,28.105731 -0.0101,3.585186 1.4233,4.14653 4.54975,1.781803 2.65866,-2.01091 9.32711,-1.992497 10.10241,0.0279 C 576.89819,93.783016 564.17694,104 558.92666,104 c -1.47497,0 -3.29937,-0.74936 -4.05422,-1.66525 z m 241.18323,-0.68832 C 791.58051,89.875852 776.00433,39.622268 776.65718,39.060842 777.91682,37.977584 788.0691,34 789.57434,34 c 0.71919,0 1.58377,0.446816 1.92129,0.992925 0.33751,0.546109 3.69295,11.149988 7.45652,23.564175 6.42926,21.206982 7.56979,24.388917 8.37296,23.359567 C 807.50392,81.6875 810.71535,71.15 814.46161,58.5 c 3.74626,-12.65 7.21635,-23.51586 7.71131,-24.146356 1.06664,-1.358704 13.75007,3.282105 14.53085,5.316766 0.57331,1.494035 -19.32866,62.97973 -20.64988,63.79629 -0.50713,0.31342 -2.76741,-0.16851 -5.02285,-1.07096 -3.78874,-1.51595 -4.42411,-1.51734 -8.34935,-0.0183 -5.44455,2.07929 -5.56248,2.06628 -6.62602,-0.73103 z m 49.41609,1.14056 c -0.27463,-0.71566 -0.38062,-16.373009 -0.23554,-34.794099 L 845.5,34.5 h 7.5 7.5 V 69 103.5 l -7.26446,0.2941 c -5.26099,0.21299 -7.40217,-0.0648 -7.76378,-1.00711 z m 44.00094,-1.0575 c -10.4688,-4.642663 -13.57431,-8.427891 -18.57124,-22.63604 -4.41862,-12.563778 -0.58109,-26.284973 10.26918,-36.717744 18.42162,-17.712792 46.20281,-6.392366 51.2289,20.875024 0.62055,3.366554 0.43064,3.869524 -1.85409,4.910515 -1.4,0.637882 -2.54545,1.960996 -2.54545,2.940253 0,0.979257 -0.41907,2.039467 -0.93126,2.35602 -0.5122,0.316554 -9.6247,1.075293 -20.25,1.686085 -10.62531,0.610793 -19.51189,1.284003 -19.74796,1.496022 -0.23608,0.21202 0.29207,1.898066 1.17365,3.74677 C 890.10961,84.297702 896.79858,88 902,88 c 4.69682,0 11.45026,-3.509722 14.97007,-7.779857 l 2.96765,-3.600272 4.69923,3.982984 c 7.77258,6.58791 7.77545,6.671357 0.46741,13.577227 -7.96062,7.522528 -11.39724,8.988498 -22.10436,9.429108 -7.11749,0.29289 -9.31768,-0.0128 -13.5273,-1.8797 z m -0.0272,-36.076189 c 1.94545,-2.099177 3.30892,-2.404578 12.92678,-2.895448 5.91357,-0.301812 11.02964,-0.826449 11.36905,-1.165859 0.33941,-0.33941 -0.13273,-2.189538 -1.0492,-4.111396 -6.02296,-12.63027 -24.2597,-7.876235 -26.07984,6.798608 -0.5392,4.347319 -0.11359,4.553739 2.83321,1.374095 z M 114.47108,101.78523 c -0.27426,-0.7147 -0.37994,-16.371249 -0.23486,-34.792339 L 114.5,33.5 l 7.33173,-0.295459 c 6.67403,-0.268955 7.37972,-0.111968 7.86663,1.75 0.6873,2.628221 0.80473,2.607078 5.30164,-0.954541 3.39721,-2.690639 4.51388,-3 10.8288,-3 3.87255,0 8.23423,0.453665 9.69262,1.008145 2.47324,0.940323 2.60375,1.29351 1.94002,5.25 -0.87255,5.201197 -3.37968,14.99343 -3.99683,15.610574 -0.24879,0.248794 -1.27804,-0.294888 -2.28722,-1.208183 -2.86275,-2.590754 -9.82316,-2.1681 -13.76123,0.835618 -1.84619,1.408154 -3.94987,2.236273 -4.82639,1.89992 -1.3744,-0.527408 -1.5847,2.214573 -1.82176,23.753847 L 130.5,102.5 l -7.76514,0.29234 c -5.66492,0.21327 -7.9,-0.0591 -8.26378,-1.00711 z M 185.5,102.0716 c -9.30275,-1.57696 -19.13173,-11.443484 -22.62053,-22.706941 -4.50926,-14.557958 -0.51547,-29.117438 10.62558,-38.735926 4.94896,-4.272617 6.34774,-4.910101 14.01859,-6.388886 9.72403,-1.874595 14.0864,-1.195899 22.92015,3.565907 12.73436,6.864421 19.27613,24.88085 14.61103,40.239668 -2.74866,9.04936 -5.88578,13.809449 -12.42691,18.855897 -6.80675,5.251371 -16.14756,7.031621 -27.12791,5.170281 z m 17.94623,-20.462787 c 1.97184,-1.503997 4.09861,-4.46858 5.11502,-7.13003 1.50835,-3.949548 1.57741,-5.281341 0.51907,-10.010497 -2.76472,-12.354054 -15.65268,-17.09871 -25.46975,-9.376599 -7.96657,6.266506 -7.91345,18.609109 0.11194,26.006651 4.45162,4.103364 4.58929,4.151166 10.42983,3.621564 4.24574,-0.38499 6.87268,-1.264347 9.29389,-3.111089 z M 256.5,102.0716 c -19.11054,-3.239529 -30.65594,-31.530488 -20.66353,-50.634137 8.8319,-16.884977 27.09011,-22.782947 44.08778,-14.241731 8.23471,4.137882 13.00062,10.159366 15.96962,20.176791 2.64263,8.91626 2.64589,12.669281 0.0184,21.176204 -2.66936,8.642388 -5.84215,13.382495 -12.28432,18.352592 -6.80675,5.251371 -16.14756,7.031621 -27.12791,5.170281 z m 17.94623,-20.462787 c 1.97725,-1.508124 4.099,-4.469624 5.12272,-7.150183 1.48973,-3.900815 1.57568,-5.320153 0.58267,-9.62211 -1.57644,-6.82953 -4.31823,-10.352831 -9.63721,-12.384165 C 260.54817,48.646212 249.81906,55.374769 248.91183,66 c -0.5601,6.559802 1.03011,10.69176 5.81068,15.098338 4.45162,4.103364 4.58929,4.151166 10.42983,3.621564 4.24574,-0.38499 6.87268,-1.264347 9.29389,-3.111089 z m 32.02466,20.175917 c -0.27436,-0.71497 -0.38005,-16.146525 -0.23486,-34.292339 L 306.5,34.5 l 7.47802,-0.298412 c 5.87479,-0.234435 7.72312,0.0368 8.6213,1.265124 1.01707,1.390932 1.62666,1.287213 5.52198,-0.939543 3.32944,-1.903271 5.82306,-2.505965 10.40619,-2.515124 6.40114,-0.01279 8.40158,0.880602 14.25411,6.365872 l 3.2816,3.075668 2.2184,-2.645742 c 1.22012,-1.455158 4.22288,-3.638286 6.6728,-4.851395 3.83782,-1.900342 5.42967,-2.115342 11.5,-1.553224 9.82685,0.909974 16.69214,5.418081 20.14665,13.229346 2.39748,5.421122 2.42861,5.869443 2.1657,31.183814 L 398.5,102.5 h -7.5 -7.5 l -0.54404,-25 c -0.29922,-13.75 -0.63672,-25.09497 -0.75,-25.211045 C 378.82293,48.822379 377.14718,48 373.46643,48 c -2.92462,0 -4.70806,0.60952 -6.01769,2.056643 -1.26738,1.400439 -2.5877,1.874313 -4.13808,1.485193 L 361.03382,50.970385 360.76691,76.735193 360.5,102.5 h -8 -8 l -0.26705,-25.190829 -0.26704,-25.190828 -2.61782,-2.059172 C 337.88538,47.335397 331.69427,47.30573 329,50 c -2.24877,2.248768 -4,2.599015 -4,0.8 0,-0.785644 -0.33921,-0.86079 -0.98237,-0.217629 -0.57703,0.577025 -1.0928,11.490851 -1.25,26.45 L 322.5,102.5 l -7.76514,0.29234 c -5.66638,0.21332 -7.89996,-0.059 -8.26397,-1.00761 z M 950.51928,101.75 C 949.82655,99.678216 936.74032,40.617361 936.61564,39 936.4799,37.239232 950.71992,32.26145 951.9451,33.641389 952.36437,34.113625 953.94664,42.15 955.46125,51.5 959.7394,77.909861 960.15343,80 961.10685,80 961.59808,80 962,78.857081 962,77.460179 c 0,-4.282254 6.92485,-42.785028 7.86392,-43.724101 0.5089,-0.508895 2.69173,-0.394272 5.16273,0.271099 3.20401,0.862749 5.4118,0.868048 8.77547,0.02106 2.47193,-0.622438 4.81124,-0.770926 5.19848,-0.329973 0.38723,0.440952 2.12204,9.576732 3.85513,20.301732 1.73308,10.725 3.34109,20.625 3.57336,22 0.23226,1.375 0.45573,3.3625 0.4966,4.416667 0.17907,4.618667 1.31736,-0.553335 4.90331,-22.278997 2.1057,-12.757343 4.3035,-23.670132 4.884,-24.250643 1.2513,-1.251303 12.6397,1.628049 14.2862,3.612024 0.731,0.880753 -0.6171,8.524547 -4.6073,26.123009 -3.1023,13.682867 -6.2747,27.795554 -7.0498,31.361526 -0.7751,3.565973 -1.816,6.890348 -2.3132,7.387508 -0.5385,0.53855 -2.6425,0.46262 -5.2052,-0.18786 -3.10486,-0.78811 -5.50454,-0.78879 -8.6274,-0.002 -2.49481,0.6282 -4.65686,0.71467 -5.10736,0.20428 -0.42965,-0.48679 -2.50828,-11.33973 -4.61916,-24.117644 -2.11089,-12.777913 -4.05179,-23.018758 -4.31311,-22.757432 -0.26133,0.261325 -1.48771,6.665982 -2.72531,14.23257 -3.89559,23.817504 -5.4319,31.657976 -6.39122,32.617296 -0.57427,0.57427 -2.57928,0.48023 -5.23542,-0.24556 -3.07256,-0.83957 -5.30465,-0.88116 -7.79812,-0.14528 -4.56818,1.34817 -5.97924,1.30054 -6.48732,-0.21902 z M 542.15808,29.618113 C 541.25459,28.454144 539,22.262877 539,20.945799 c 0,-1.345097 9.08835,-6.125872 10.56686,-5.558518 1.00057,0.383958 1.43314,2.187943 1.43314,5.976831 0,5.331909 -0.0698,5.461404 -3.98701,7.399499 -2.85641,1.413239 -4.23312,1.655551 -4.85491,0.854502 z M 845.0728,24.272156 C 840.71657,18.987291 840.72082,12.402899 845.08403,6.8939043 847.88743,3.3543234 848.59753,3 852.88786,3 c 4.02606,0 5.1896,0.4847021 7.91597,3.2976072 C 863.67794,9.2629326 864,10.200429 864,15.60144 c 0,5.481217 -0.28825,6.285606 -3.29761,9.202393 C 857.9582,27.463611 856.62784,28 852.7752,28 c -4.12867,0 -4.96207,-0.403354 -7.7024,-3.727844 z"
     style="fill:#000000" />
</svg>
