<svg width="198.44mm" height="49.254mm" version="1.1" viewBox="0 0 198.4375 49.253868" xmlns="http://www.w3.org/2000/svg">
  <g transform="translate(96.19 -61.587)">
    <g>
      <rect x="-96.19" y="61.587" width="198.44" height="49.254" style="paint-order:stroke fill markers"/>
      <path d="m16.024 93.823c-0.53027-0.67411-0.46661-1.7218 0.18265-3.0063 0.37109-0.73419 0.70836-1.8982 1.0971-3.7864 0.80303-3.9005 1.2554-6.0778 1.3522-6.509 0.0783-0.34838 0.015-0.37845-0.89666-0.42598l-0.98087-0.0512-0.0521-0.8111c-0.0642-1.0013 0.0515-1.06 1.7073-0.86684 1.1288 0.1317 1.2581 0.18702 1.4691 0.6282 0.20112 0.4205 0.18303 0.74364-0.13825 2.4707-0.20332 1.0928-0.51198 2.5994-0.68593 3.3481-0.17396 0.74863-0.29623 1.3812-0.2717 1.4057 0.0246 0.0246 0.45608-0.5872 0.95902-1.3594 0.50295-0.77217 1.2215-1.7371 1.5968-2.1442 0.5958-0.64636 0.74796-0.72715 1.1993-0.63688 0.2922 0.0585 0.87236 0.45345 1.3345 0.9086 1.842 1.8143 1.9827 4.9022 0.36888 8.0971-0.97807 1.9364-1.4817 2.5061-2.2151 2.5061-0.42589 0-0.69671-0.16697-1.2574-0.77529-0.78184-0.84817-0.80182-1.0588-0.13611-1.4342 0.39969-0.22537 0.47667-0.21971 0.78302 0.0575 0.58236 0.52702 0.89702 0.27924 1.7614-1.387 0.78593-1.515 0.81867-1.6347 0.81506-2.9813-3e-3 -0.99398-0.095-1.6016-0.31672-2.0845-0.38061-0.82886-0.91042-1.3276-1.3282-1.2503-0.34837 0.0645-2.1211 2.6279-3.5159 5.0841-0.74869 1.3184-0.96974 1.8985-1.1915 3.1265-0.40331 2.2338-0.90646 2.8097-1.6401 1.877zm-97.381-0.61832c-0.139-0.21214-0.38049-0.88306-0.53666-1.4909-0.69424-2.7024 0.23428-7.004 1.9129-8.862 0.59341-0.65682 0.69655-0.70585 1.3116-0.62336 0.36712 0.0493 0.99614 0.32555 1.3978 0.61401 0.88378 0.63467 0.99177 0.64326 1.24 0.0985 0.16566-0.36359 0.30772-0.42598 0.96985-0.42598 0.56552 0 0.80517 0.0766 0.88427 0.28277 0.11507 0.29987-0.07178 1.5869-0.71343 4.9142-0.78289 4.0597-0.7604 4.2229 0.35109 2.5484 0.33939-0.5113 0.67187-0.92965 0.73884-0.92965 0.06698 0 0.29214 0.23043 0.50036 0.51207l0.37858 0.51204-0.71082 1.0641c-1.0204 1.5274-1.672 2.1716-2.1967 2.1716-0.24402 0-0.53568-0.092-0.64814-0.20447-0.34773-0.34774-0.23882-2.8328 0.22668-5.1723 0.23714-1.1918 0.39462-2.2034 0.34997-2.2481-0.11039-0.11039-0.61898 0.73862-1.6585 2.7687-1.1754 2.2954-2.9738 4.8562-3.4103 4.8562-0.07402 0-0.24831-0.17357-0.38731-0.38571zm1.3868-3.0647c0.28495-0.39828 0.7913-1.2681 1.1252-1.933 0.33393-0.66486 0.84666-1.6151 1.1394-2.1116l0.53227-0.90273-0.55449-0.5721c-0.30497-0.31465-0.67747-0.57208-0.82777-0.57208-0.1503 0-0.35542-0.0822-0.45582-0.18256-0.6294-0.6294-1.9247 3.3929-1.929 5.9901-2e-3 1.2461 0.23272 1.3148 0.97021 0.28398zm72.24 3.3368c-0.19641-0.1964-0.12378-1.0316 0.13338-1.5339 1.0797-2.1087 1.2865-2.8067 1.2865-4.3408 0-1.6768-0.24404-2.4891-0.97807-3.2554-0.86916-0.90741-2.2312-0.46915-2.5786 0.82968-0.11229 0.41988-0.21572 0.49085-0.71538 0.49085-0.55673 0-0.58202-0.0265-0.53938-0.56474 0.10936-1.3806 1.6011-3.0987 2.6905-3.0987 1.1285 0 2.1742 0.83937 2.7951 2.2436 0.48284 1.0919 0.75716 3.2593 0.55399 4.3771-0.18319 1.0079-0.01029 1.2768 0.3741 0.58162 1.3558-2.4521 1.3796-2.5365 1.3796-4.8994 0-1.8701 0.04122-2.2204 0.26618-2.264 0.36204-0.0702 1.6114 1.4448 2.1354 2.5894 0.50528 1.1037 0.71414 3.3106 0.4366 4.6133-0.44433 2.0854-0.48673 1.9735 0.38749 1.0224 0.43066-0.46858 0.96905-1.1587 1.1964-1.5335 0.4302-0.70928 1.286-3.4229 1.286-4.0778 0-0.20694-0.26837-0.68978-0.59638-1.073-0.67085-0.78374-0.71431-0.99471-0.32066-1.5567l0.27571-0.39362 0.6551 0.63968c0.66244 0.64687 1.179 1.7994 1.179 2.6307 0 0.74585-0.65547 3.0775-1.1727 4.1715-0.92452 1.9555-3.8403 4.6087-4.9271 4.4833-0.42722-0.0493-0.4579-0.10614-0.42674-0.79051 0.01847-0.40557 0.19008-1.0027 0.38137-1.3269 0.42572-0.72155 1.0341-3.038 1.0315-3.9278-0.0026-0.93767-0.18851-1.9311-0.36121-1.9311-0.08146 0-0.1481 0.1494-0.1481 0.33199 0 0.66753-0.85997 3.0296-1.402 3.8507-0.30632 0.4641-1.2209 1.5147-2.0325 2.3347-1.3458 1.3599-1.9141 1.7085-2.2453 1.3773zm40.087-0.34259c-0.75332-1.9742-0.87278-4.3171-0.32863-6.4447 0.45664-1.7854 1.0794-3.1026 1.8326-3.8763 0.8143-0.83644 1.4061-0.84623 2.5744-0.0426 0.47684 0.328 0.93318 0.59637 1.0141 0.59637 0.081 0 0.23638-0.19588 0.34548-0.43528 0.17792-0.39051 0.2814-0.42996 1.0056-0.38339 0.64634 0.0415 0.82002 0.1191 0.87136 0.38901 0.0711 0.37408-0.11586 1.5253-0.84682 5.213-0.71321 3.5981-0.66266 3.8376 0.44483 2.1063 0.32575-0.50923 0.65549-0.92587 0.73274-0.92587 0.0773 0 0.31083 0.23043 0.51906 0.51206l0.37858 0.51205-0.67073 0.97887c-1.0309 1.5046-1.9231 2.2951-2.514 2.2276l-0.49026-0.056-0.0494-1.5017c-0.044-1.3367 0.2115-3.2489 0.7555-5.6548 0.22136-0.97903-0.3786-0.1551-1.5022 2.063-1.1442 2.2586-3.0946 5.0545-3.591 5.1476-0.19717 0.037-0.35969-0.10658-0.48124-0.42513zm1.5558-3.1667c0.33359-0.4909 0.90226-1.4676 1.2637-2.1705 0.36145-0.70287 0.84205-1.5734 1.068-1.9344l0.41083-0.65652-0.3966-0.42398c-0.21815-0.23319-0.68408-0.56334-1.0354-0.73368l-0.63882-0.3097-0.34133 0.43395c-1.0004 1.2717-1.8422 6.7058-1.0363 6.6894 0.0547-7.94e-4 0.37233-0.40367 0.70593-0.89456zm-29.624 3.0776c-0.3569-0.35691-0.22493-1.4984 0.54766-4.7369 0.41359-1.7337 0.80311-3.2811 0.86559-3.4386 0.0907-0.22858-5.3e-4 -0.29734-0.45388-0.34078-0.53594-0.0514-0.57039-0.0947-0.61994-0.78014-0.0354-0.48964 0.0201-0.74521 0.17039-0.78561 0.12258-0.0329 0.6261-0.19354 1.1189-0.35688 1.6535-0.54802 1.7223-0.2371 0.74391 3.3597-0.36318 1.3351-0.75194 2.9145-0.86394 3.5097-0.11198 0.59522-0.24948 1.2018-0.30556 1.3479-0.10332 0.26923 0.11677 0.25869 0.84153-0.0403 0.22286-0.0919 0.35084 0.027 0.55499 0.51553 0.32571 0.77957 0.21137 0.952-1.0164 1.5328-0.99233 0.46945-1.2875 0.50925-1.5833 0.21348zm4.8856-0.0793c-0.55962-0.67902-0.15023-3.9278 0.96625-7.6681 0.0888-0.29745 0.0324-0.38043-0.28932-0.42598-0.33233-0.0471-0.39961-0.157-0.39961-0.65295 0-0.57642 0.0247-0.59923 0.73633-0.68157 0.73393-0.0849 0.73814-0.0893 1.2863-1.3631 0.50657-1.1772 0.59304-1.2822 1.0966-1.3314 0.73895-0.0723 0.82649 0.24605 0.38908 1.4151-0.19579 0.52329-0.35598 1.0217-0.35598 1.1077 0 0.0859 0.51756 0.17888 1.1501 0.20659l1.1502 0.0503v1.1927l-1.5033 0.0494-1.5034 0.0494-0.41929 0.94811c-0.49953 1.1295-1.2561 4.009-1.2583 4.789-2e-3 0.61088 0.24252 0.70654 0.77524 0.3036 0.45302-0.34264 1.5893-0.3395 1.7214 5e-3 0.21076 0.54923-1.9569 2.2901-2.8515 2.2901-0.25132 0-0.5622-0.12768-0.69081-0.28374zm41.096-0.1173c-0.76253-2.0056-3.4166-10.568-3.3053-10.664 0.21463-0.18457 1.9445-0.86232 2.201-0.86232 0.12255 0 0.26986 0.0762 0.32738 0.16919 0.0575 0.0931 0.62924 1.8999 1.2705 4.0151 1.0955 3.6135 1.2898 4.1557 1.4267 3.9803 0.0305-0.039 0.57767-1.8346 1.216-3.99 0.63833-2.1555 1.2296-4.0069 1.3139-4.1143 0.18175-0.23152 2.3429 0.55924 2.476 0.90593 0.0977 0.25458-3.2934 10.731-3.5186 10.87-0.0864 0.0534-0.47154-0.0287-0.85585-0.18248-0.64557-0.25831-0.75384-0.25854-1.4226-4e-3 -0.92772 0.3543-0.94781 0.35209-1.129-0.12455zm8.4201 0.19435c-0.0468-0.12194-0.0649-2.7898-0.0401-5.9286l0.045-5.7069h2.5559v11.757l-1.2378 0.0501c-0.89643 0.0362-1.2613-0.01101-1.3229-0.17161zm7.4974-0.18019c-1.7838-0.79107-2.313-1.436-3.1644-3.857-0.75289-2.1408-0.099-4.4787 1.7498-6.2564 3.1389-3.0181 7.8726-1.0892 8.729 3.5569 0.10574 0.57363 0.0734 0.65934-0.31591 0.83671-0.23854 0.10869-0.43372 0.33414-0.43372 0.501s-0.0714 0.3475-0.15869 0.40145c-0.0873 0.054-1.64 0.18322-3.4504 0.28729-1.8105 0.10407-3.3247 0.21878-3.3649 0.25491-0.0403 0.0362 0.0498 0.32341 0.19998 0.63842 0.31782 0.66645 1.4576 1.2973 2.3438 1.2973 0.8003 0 1.951-0.59803 2.5508-1.3256l0.50565-0.61345 0.80072 0.67867c1.3244 1.1225 1.3248 1.1367 0.0797 2.3134-1.3564 1.2818-1.942 1.5316-3.7664 1.6067-1.2128 0.0499-1.5876-0.0021-2.3049-0.32029zm-5e-3 -6.1471c0.33148-0.35768 0.56382-0.40972 2.2026-0.49337 1.0076-0.0514 1.8794-0.14081 1.9372-0.19864 0.0579-0.0579-0.0226-0.37308-0.17876-0.70056-1.0263-2.1521-4.1337-1.342-4.4438 1.1584-0.0919 0.74075-0.0194 0.77592 0.48275 0.23414zm-132.05 6.1566c-0.04674-0.12178-0.06474-2.7895-0.04002-5.9283l0.04494-5.7069 1.2493-0.0503c1.1372-0.0458 1.2574-0.019 1.3404 0.29818 0.11711 0.44783 0.13712 0.44423 0.90336-0.16264 0.57886-0.45847 0.76912-0.51118 1.8451-0.51118 0.65985 0 1.403 0.0773 1.6515 0.17178 0.42142 0.16023 0.44366 0.2204 0.33056 0.89455-0.14867 0.88625-0.57587 2.5548-0.68103 2.6599-0.04239 0.0424-0.21776-0.0502-0.38972-0.20586-0.48779-0.44145-1.6738-0.36943-2.3448 0.14238-0.31457 0.23993-0.67303 0.38104-0.82238 0.32373-0.23419-0.0899-0.27002 0.37734-0.31042 4.0475l-0.04567 4.149-1.3231 0.0499c-0.96525 0.0363-1.3461-0.01-1.4081-0.1716zm12.103 0.0488c-1.5851-0.2687-3.2599-1.9499-3.8544-3.8691-0.76834-2.4806-0.08783-4.9614 1.8105-6.6003 0.84326-0.72803 1.0816-0.83665 2.3887-1.0886 1.6569-0.31942 2.4002-0.20377 3.9054 0.6076 2.1698 1.1696 3.2845 4.2395 2.4896 6.8565-0.46835 1.5419-1.0029 2.353-2.1174 3.2129-1.1598 0.8948-2.7514 1.1981-4.6224 0.88097zm3.0579-3.4867c0.33599-0.25627 0.69837-0.76141 0.87156-1.2149 0.25701-0.67296 0.26878-0.89989 0.08845-1.7057-0.47109-2.105-2.6671-2.9135-4.3398-1.5977-1.3574 1.0678-1.3484 3.1708 0.01908 4.4313 0.75852 0.69918 0.78198 0.70734 1.7772 0.61708 0.72344-0.0656 1.171-0.21542 1.5836-0.53009zm9.0399 3.4867c-3.2563-0.55198-5.2235-5.3725-3.5209-8.6276 1.5049-2.8771 4.6159-3.882 7.5122-2.4267 1.4031 0.70507 2.2152 1.7311 2.7211 3.438 0.45028 1.5193 0.45084 2.1587 0.0031 3.6083-0.45484 1.4726-0.99546 2.2803-2.0931 3.1271-1.1598 0.8948-2.7514 1.1981-4.6224 0.88097zm3.0579-3.4867c0.33691-0.25698 0.69844-0.7616 0.87287-1.2183 0.25384-0.66466 0.26848-0.9065 0.09928-1.6395-0.26861-1.1637-0.73579-1.764-1.6421-2.1102-1.6982-0.64853-3.5263 0.49795-3.6809 2.3084-0.09544 1.1177 0.17552 1.8218 0.99009 2.5726 0.75852 0.69918 0.78198 0.70734 1.7772 0.61708 0.72344-0.0656 1.171-0.21542 1.5836-0.53009zm5.4567 3.4378c-0.04674-0.12183-0.06476-2.7512-0.04002-5.8431l0.04498-5.6216 1.2742-0.0509c1.001-0.0399 1.316 6e-3 1.469 0.21556 0.1733 0.237 0.27717 0.21933 0.9409-0.16009 0.56731-0.3243 0.9922-0.427 1.7731-0.42856 1.0907-2e-3 1.4316 0.15005 2.4288 1.0847l0.55916 0.52407 0.378-0.45082c0.2079-0.24794 0.71954-0.61993 1.137-0.82664 0.65393-0.3238 0.92517-0.36043 1.9595-0.26466 1.6744 0.15506 2.8442 0.92321 3.4328 2.2542 0.40851 0.92372 0.41382 1.0001 0.36901 5.3135l-0.04547 4.3763h-2.5559l-0.0927-4.2598c-0.05099-2.3429-0.10849-4.276-0.12779-4.2958-0.57644-0.59067-0.86198-0.7308-1.4891-0.7308-0.49833 0-0.80221 0.10386-1.0254 0.35043-0.21595 0.23863-0.44092 0.31938-0.7051 0.25306l-0.38795-0.0974-0.04547 4.3901-0.04548 4.3901h-2.7262l-0.0455-4.2923-0.0455-4.2923-0.44605-0.35087c-0.59002-0.4641-1.6449-0.46916-2.104-0.01-0.38317 0.38318-0.68157 0.44286-0.68157 0.13631 0-0.13386-0.0578-0.14666-0.16739-0.0371-0.09832 0.0983-0.1862 1.958-0.21299 4.5069l-0.0456 4.3395-1.3231 0.0499c-0.9655 0.0363-1.3461-0.01-1.4081-0.17169zm109.74-6e-3c-0.11805-0.35301-2.3478-10.416-2.3691-10.692-0.0231-0.30003 2.4032-1.1482 2.612-0.91307 0.0715 0.0805 0.34103 1.4498 0.59911 3.043 0.72897 4.5 0.79952 4.8562 0.96197 4.8562 0.0837 0 0.15219-0.19474 0.15219-0.43277 0-0.72966 1.18-7.2902 1.3399-7.4502 0.0867-0.0867 0.45865-0.0672 0.8797 0.0462 0.54593 0.14701 0.92211 0.14791 1.4953 4e-3 0.4212-0.10605 0.8198-0.13135 0.88577-0.0562 0.066 0.0752 0.36158 1.6318 0.65689 3.4592 0.29529 1.8274 0.56929 3.5143 0.60888 3.7486 0.0396 0.23429 0.0776 0.57294 0.0846 0.75257 0.0305 0.78698 0.22447-0.0943 0.83548-3.7962 0.35881-2.1738 0.73329-4.0332 0.83219-4.1321 0.21322-0.21321 2.1537 0.27741 2.4343 0.61546 0.12455 0.15008-0.10515 1.4525-0.78505 4.4512-0.52859 2.3314-1.0692 4.7361-1.2012 5.3437-0.13208 0.60761-0.30944 1.1741-0.39416 1.2588-0.0917 0.0918-0.45026 0.0788-0.88693-0.032-0.52903-0.13428-0.93792-0.1344-1.47-2.65e-4 -0.42509 0.10705-0.79349 0.12178-0.87025 0.0349-0.0732-0.083-0.4274-1.9322-0.78706-4.1094-0.35968-2.1772-0.69041-3.9222-0.73492-3.8777-0.0445 0.0445-0.2535 1.1358-0.46439 2.4251-0.66377 4.0583-0.92553 5.3943-1.089 5.5577-0.0978 0.0979-0.43949 0.0818-0.89208-0.0419-0.52352-0.14305-0.90386-0.15013-1.3287-0.02469-0.77838 0.22971-1.0188 0.2216-1.1054-0.0374zm-69.582-12.291c-0.15395-0.19833-0.53811-1.2533-0.53811-1.4777 0-0.2292 1.5486-1.0438 1.8005-0.94713 0.1705 0.0654 0.24421 0.37281 0.24421 1.0184 0 0.90851-0.0119 0.93057-0.67936 1.2608-0.48671 0.24081-0.72129 0.28209-0.82724 0.1456zm51.614-0.9109c-0.74225-0.9005-0.74153-2.0224 2e-3 -2.9611 0.47768-0.60311 0.59867-0.66349 1.3297-0.66349 0.68601 0 0.88427 0.0826 1.3488 0.56189 0.48972 0.50526 0.5446 0.665 0.5446 1.5853 0 0.93396-0.0491 1.071-0.56188 1.568-0.46759 0.45321-0.69428 0.5446-1.3507 0.5446-0.70349 0-0.8455-0.0687-1.3124-0.63519z" fill="#fff" stroke-width=".17039"/>
    </g>
  </g>
</svg>
